<svg version="1.1" viewBox="0.0 0.0 600.0 371.0" fill="none" stroke="none" stroke-linecap="square" stroke-miterlimit="10" width="600" height="371" xmlns:xlink="http://www.w3.org/1999/xlink" xmlns="http://www.w3.org/2000/svg"><path fill="#ffffff" d="M0 0L600.0 0L600.0 371.0L0 371.0L0 0Z" fill-rule="nonzero"/><path stroke="#cccccc" stroke-width="1.0" stroke-linecap="butt" d="M82.5 296.5L581.5 296.5" fill-rule="nonzero"/><path stroke="#cccccc" stroke-width="1.0" stroke-linecap="butt" d="M82.5 221.5L581.5 221.5" fill-rule="nonzero"/><path stroke="#cccccc" stroke-width="1.0" stroke-linecap="butt" d="M82.5 189.5L581.5 189.5" fill-rule="nonzero"/><path stroke="#cccccc" stroke-width="1.0" stroke-linecap="butt" d="M82.5 114.5L581.5 114.5" fill-rule="nonzero"/><path stroke="#cccccc" stroke-width="1.0" stroke-linecap="butt" d="M82.5 82.5L581.5 82.5" fill-rule="nonzero"/><clipPath id="id_0"><path d="M82.55 54.916668L581.45 54.916668L581.45 296.45L82.55 296.45L82.55 54.916668Z" clip-rule="nonzero"/></clipPath><path stroke="#4285f4" stroke-width="2.0" stroke-linecap="butt" clip-path="url(#id_0)" d="M110.26667 278.84985C110.26667 278.84985 147.22223 280.508 165.7 278.66595C184.17778 276.82394 202.65555 271.92215 221.13333 267.7977C239.61111 263.67325 258.0889 257.12518 276.56668 253.91927C295.04443 250.71333 313.52222 251.49031 332.0 248.56213C350.47778 245.63394 368.95557 251.75005 387.43332 236.35014C405.9111 220.95026 424.3889 180.81088 442.86667 156.16277C461.34445 131.51466 479.82224 105.00954 498.3 88.46147C516.7778 71.91341 553.73334 56.874367 553.73334 56.874367" fill-rule="nonzero"/><path stroke="#ea4335" stroke-width="2.0" stroke-linecap="butt" clip-path="url(#id_0)" d="M110.26667 278.97034C110.26667 278.97034 147.22223 280.41605 165.7 280.94507C184.17778 281.4741 202.65555 282.29062 221.13333 282.14444C239.61111 281.99823 258.0889 280.21893 276.56668 280.0679C295.04443 279.9169 313.52222 281.03656 332.0 281.23834C350.47778 281.44016 368.95557 281.294 387.43332 281.27872C405.9111 281.26343 424.3889 281.3243 442.86667 281.1466C461.34445 280.96887 479.82224 280.12033 498.3 280.2124C516.7778 280.3045 553.73334 281.6991 553.73334 281.6991" fill-rule="nonzero"/><path stroke="#fbbc04" stroke-width="2.0" stroke-linecap="butt" clip-path="url(#id_0)" d="M110.26667 273.6306C110.26667 273.6306 147.22223 276.6051 165.7 276.7217C184.17778 276.83832 202.65555 274.38528 221.13333 274.33026C239.61111 274.2752 258.0889 276.27206 276.56668 276.39148C295.04443 276.51086 313.52222 275.51196 332.0 275.04666C350.47778 274.58133 368.95557 273.58502 387.43332 273.59958C405.9111 273.6141 424.3889 274.96222 442.86667 275.13388C461.34445 275.30554 479.82224 274.51535 498.3 274.62958C516.7778 274.74384 553.73334 275.81924 553.73334 275.81924" fill-rule="nonzero"/><path stroke="#34a853" stroke-width="2.0" stroke-linecap="butt" clip-path="url(#id_0)" d="M110.26667 279.76932C110.26667 279.76932 147.22223 278.27042 165.7 277.67322C184.17778 277.07602 202.65555 277.2314 221.13333 276.18616C239.61111 275.1409 258.0889 276.152 276.56668 271.40167C295.04443 266.65134 313.52222 250.80019 332.0 247.68407C350.47778 244.56795 368.95557 264.9783 387.43332 252.70497C405.9111 240.43166 424.3889 201.4448 442.86667 174.04414C461.34445 146.64351 479.82224 105.2559 498.3 88.3011C516.7778 71.34631 553.73334 72.315414 553.73334 72.315414" fill-rule="nonzero"/><path fill="#000000" fill-opacity="0.0" clip-path="url(#id_0)" d="M113.26667 278.84985C113.26667 280.50668 111.92352 281.84985 110.26667 281.84985C108.60981 281.84985 107.26667 280.50668 107.26667 278.84985C107.26667 277.193 108.60981 275.84985 110.26667 275.84985C111.92352 275.84985 113.26667 277.193 113.26667 278.84985Z" fill-rule="nonzero"/><path fill="#000000" fill-opacity="0.0" clip-path="url(#id_0)" d="M168.7 278.66595C168.7 280.3228 167.35686 281.66595 165.7 281.66595C164.04315 281.66595 162.7 280.3228 162.7 278.66595C162.7 277.00912 164.04315 275.66595 165.7 275.66595C167.35686 275.66595 168.7 277.00912 168.7 278.66595Z" fill-rule="nonzero"/><path fill="#000000" fill-opacity="0.0" clip-path="url(#id_0)" d="M224.13333 267.7977C224.13333 269.45456 222.79019 270.7977 221.13333 270.7977C219.47649 270.7977 218.13333 269.45456 218.13333 267.7977C218.13333 266.14084 219.47649 264.7977 221.13333 264.7977C222.79019 264.7977 224.13333 266.14084 224.13333 267.7977Z" fill-rule="nonzero"/><path fill="#000000" fill-opacity="0.0" clip-path="url(#id_0)" d="M279.56668 253.91927C279.56668 255.57613 278.2235 256.91925 276.56668 256.91925C274.90982 256.91925 273.56668 255.57613 273.56668 253.91927C273.56668 252.2624 274.90982 250.91927 276.56668 250.91927C278.2235 250.91927 279.56668 252.2624 279.56668 253.91927Z" fill-rule="nonzero"/><path fill="#000000" fill-opacity="0.0" clip-path="url(#id_0)" d="M335.0 248.56213C335.0 250.21898 333.65686 251.56213 332.0 251.56213C330.34314 251.56213 329.0 250.21898 329.0 248.56213C329.0 246.90527 330.34314 245.56213 332.0 245.56213C333.65686 245.56213 335.0 246.90527 335.0 248.56213Z" fill-rule="nonzero"/><path fill="#000000" fill-opacity="0.0" clip-path="url(#id_0)" d="M390.43332 236.35014C390.43332 238.007 389.09018 239.35014 387.43332 239.35014C385.7765 239.35014 384.43332 238.007 384.43332 236.35014C384.43332 234.6933 385.7765 233.35014 387.43332 233.35014C389.09018 233.35014 390.43332 234.6933 390.43332 236.35014Z" fill-rule="nonzero"/><path fill="#000000" fill-opacity="0.0" clip-path="url(#id_0)" d="M445.86667 156.16277C445.86667 157.81963 444.52353 159.16277 442.86667 159.16277C441.2098 159.16277 439.86667 157.81963 439.86667 156.16277C439.86667 154.50592 441.2098 153.16277 442.86667 153.16277C444.52353 153.16277 445.86667 154.50592 445.86667 156.16277Z" fill-rule="nonzero"/><path fill="#000000" fill-opacity="0.0" clip-path="url(#id_0)" d="M501.3 88.46147C501.3 90.118324 499.95685 91.46147 498.3 91.46147C496.64316 91.46147 495.3 90.118324 495.3 88.46147C495.3 86.80462 496.64316 85.46147 498.3 85.46147C499.95685 85.46147 501.3 86.80462 501.3 88.46147Z" fill-rule="nonzero"/><path fill="#000000" fill-opacity="0.0" clip-path="url(#id_0)" d="M556.73334 56.874367C556.73334 58.53122 555.3902 59.874367 553.73334 59.874367C552.0765 59.874367 550.73334 58.53122 550.73334 56.874367C550.73334 55.21751 552.0765 53.874367 553.73334 53.874367C555.3902 53.874367 556.73334 55.21751 556.73334 56.874367Z" fill-rule="nonzero"/><path fill="#000000" fill-opacity="0.0" clip-path="url(#id_0)" d="M113.26667 278.97034C113.26667 280.62717 111.92352 281.97034 110.26667 281.97034C108.60981 281.97034 107.26667 280.62717 107.26667 278.97034C107.26667 277.31348 108.60981 275.97034 110.26667 275.97034C111.92352 275.97034 113.26667 277.31348 113.26667 278.97034Z" fill-rule="nonzero"/><path fill="#000000" fill-opacity="0.0" clip-path="url(#id_0)" d="M168.7 280.94507C168.7 282.60193 167.35686 283.94507 165.7 283.94507C164.04315 283.94507 162.7 282.60193 162.7 280.94507C162.7 279.2882 164.04315 277.94507 165.7 277.94507C167.35686 277.94507 168.7 279.2882 168.7 280.94507Z" fill-rule="nonzero"/><path fill="#000000" fill-opacity="0.0" clip-path="url(#id_0)" d="M224.13333 282.14444C224.13333 283.80127 222.79019 285.14444 221.13333 285.14444C219.47649 285.14444 218.13333 283.80127 218.13333 282.14444C218.13333 280.48758 219.47649 279.14444 221.13333 279.14444C222.79019 279.14444 224.13333 280.48758 224.13333 282.14444Z" fill-rule="nonzero"/><path fill="#000000" fill-opacity="0.0" clip-path="url(#id_0)" d="M279.56668 280.0679C279.56668 281.72476 278.2235 283.0679 276.56668 283.0679C274.90982 283.0679 273.56668 281.72476 273.56668 280.0679C273.56668 278.41107 274.90982 277.0679 276.56668 277.0679C278.2235 277.0679 279.56668 278.41107 279.56668 280.0679Z" fill-rule="nonzero"/><path fill="#000000" fill-opacity="0.0" clip-path="url(#id_0)" d="M335.0 281.23834C335.0 282.8952 333.65686 284.23834 332.0 284.23834C330.34314 284.23834 329.0 282.8952 329.0 281.23834C329.0 279.5815 330.34314 278.23834 332.0 278.23834C333.65686 278.23834 335.0 279.5815 335.0 281.23834Z" fill-rule="nonzero"/><path fill="#000000" fill-opacity="0.0" clip-path="url(#id_0)" d="M390.43332 281.27872C390.43332 282.93558 389.09018 284.27872 387.43332 284.27872C385.7765 284.27872 384.43332 282.93558 384.43332 281.27872C384.43332 279.62186 385.7765 278.27872 387.43332 278.27872C389.09018 278.27872 390.43332 279.62186 390.43332 281.27872Z" fill-rule="nonzero"/><path fill="#000000" fill-opacity="0.0" clip-path="url(#id_0)" d="M445.86667 281.1466C445.86667 282.80347 444.52353 284.1466 442.86667 284.1466C441.2098 284.1466 439.86667 282.80347 439.86667 281.1466C439.86667 279.48975 441.2098 278.1466 442.86667 278.1466C444.52353 278.1466 445.86667 279.48975 445.86667 281.1466Z" fill-rule="nonzero"/><path fill="#000000" fill-opacity="0.0" clip-path="url(#id_0)" d="M501.3 280.2124C501.3 281.86926 499.95685 283.2124 498.3 283.2124C496.64316 283.2124 495.3 281.86926 495.3 280.2124C495.3 278.55557 496.64316 277.2124 498.3 277.2124C499.95685 277.2124 501.3 278.55557 501.3 280.2124Z" fill-rule="nonzero"/><path fill="#000000" fill-opacity="0.0" clip-path="url(#id_0)" d="M556.73334 281.6991C556.73334 283.35596 555.3902 284.6991 553.73334 284.6991C552.0765 284.6991 550.73334 283.35596 550.73334 281.6991C550.73334 280.04224 552.0765 278.6991 553.73334 278.6991C555.3902 278.6991 556.73334 280.04224 556.73334 281.6991Z" fill-rule="nonzero"/><path fill="#000000" fill-opacity="0.0" clip-path="url(#id_0)" d="M113.26667 273.6306C113.26667 275.28748 111.92352 276.6306 110.26667 276.6306C108.60981 276.6306 107.26667 275.28748 107.26667 273.6306C107.26667 271.97375 108.60981 270.6306 110.26667 270.6306C111.92352 270.6306 113.26667 271.97375 113.26667 273.6306Z" fill-rule="nonzero"/><path fill="#000000" fill-opacity="0.0" clip-path="url(#id_0)" d="M168.7 276.7217C168.7 278.37854 167.35686 279.7217 165.7 279.7217C164.04315 279.7217 162.7 278.37854 162.7 276.7217C162.7 275.06485 164.04315 273.7217 165.7 273.7217C167.35686 273.7217 168.7 275.06485 168.7 276.7217Z" fill-rule="nonzero"/><path fill="#000000" fill-opacity="0.0" clip-path="url(#id_0)" d="M224.13333 274.33026C224.13333 275.98712 222.79019 277.33026 221.13333 277.33026C219.47649 277.33026 218.13333 275.98712 218.13333 274.33026C218.13333 272.6734 219.47649 271.33026 221.13333 271.33026C222.79019 271.33026 224.13333 272.6734 224.13333 274.33026Z" fill-rule="nonzero"/><path fill="#000000" fill-opacity="0.0" clip-path="url(#id_0)" d="M279.56668 276.39148C279.56668 278.04834 278.2235 279.39148 276.56668 279.39148C274.90982 279.39148 273.56668 278.04834 273.56668 276.39148C273.56668 274.73462 274.90982 273.39148 276.56668 273.39148C278.2235 273.39148 279.56668 274.73462 279.56668 276.39148Z" fill-rule="nonzero"/><path fill="#000000" fill-opacity="0.0" clip-path="url(#id_0)" d="M335.0 275.04666C335.0 276.7035 333.65686 278.04666 332.0 278.04666C330.34314 278.04666 329.0 276.7035 329.0 275.04666C329.0 273.3898 330.34314 272.04666 332.0 272.04666C333.65686 272.04666 335.0 273.3898 335.0 275.04666Z" fill-rule="nonzero"/><path fill="#000000" fill-opacity="0.0" clip-path="url(#id_0)" d="M390.43332 273.59958C390.43332 275.25644 389.09018 276.59958 387.43332 276.59958C385.7765 276.59958 384.43332 275.25644 384.43332 273.59958C384.43332 271.94272 385.7765 270.59958 387.43332 270.59958C389.09018 270.59958 390.43332 271.94272 390.43332 273.59958Z" fill-rule="nonzero"/><path fill="#000000" fill-opacity="0.0" clip-path="url(#id_0)" d="M445.86667 275.13388C445.86667 276.79074 444.52353 278.13388 442.86667 278.13388C441.2098 278.13388 439.86667 276.79074 439.86667 275.13388C439.86667 273.47702 441.2098 272.13388 442.86667 272.13388C444.52353 272.13388 445.86667 273.47702 445.86667 275.13388Z" fill-rule="nonzero"/><path fill="#000000" fill-opacity="0.0" clip-path="url(#id_0)" d="M501.3 274.62958C501.3 276.28644 499.95685 277.62958 498.3 277.62958C496.64316 277.62958 495.3 276.28644 495.3 274.62958C495.3 272.97275 496.64316 271.62958 498.3 271.62958C499.95685 271.62958 501.3 272.97275 501.3 274.62958Z" fill-rule="nonzero"/><path fill="#000000" fill-opacity="0.0" clip-path="url(#id_0)" d="M556.73334 275.81924C556.73334 277.4761 555.3902 278.81924 553.73334 278.81924C552.0765 278.81924 550.73334 277.4761 550.73334 275.81924C550.73334 274.16238 552.0765 272.81924 553.73334 272.81924C555.3902 272.81924 556.73334 274.16238 556.73334 275.81924Z" fill-rule="nonzero"/><path fill="#000000" fill-opacity="0.0" clip-path="url(#id_0)" d="M113.26667 279.76932C113.26667 281.42618 111.92352 282.76932 110.26667 282.76932C108.60981 282.76932 107.26667 281.42618 107.26667 279.76932C107.26667 278.11246 108.60981 276.76932 110.26667 276.76932C111.92352 276.76932 113.26667 278.11246 113.26667 279.76932Z" fill-rule="nonzero"/><path fill="#000000" fill-opacity="0.0" clip-path="url(#id_0)" d="M168.7 277.67322C168.7 279.33008 167.35686 280.67322 165.7 280.67322C164.04315 280.67322 162.7 279.33008 162.7 277.67322C162.7 276.01636 164.04315 274.67322 165.7 274.67322C167.35686 274.67322 168.7 276.01636 168.7 277.67322Z" fill-rule="nonzero"/><path fill="#000000" fill-opacity="0.0" clip-path="url(#id_0)" d="M224.13333 276.18616C224.13333 277.84302 222.79019 279.18616 221.13333 279.18616C219.47649 279.18616 218.13333 277.84302 218.13333 276.18616C218.13333 274.5293 219.47649 273.18616 221.13333 273.18616C222.79019 273.18616 224.13333 274.5293 224.13333 276.18616Z" fill-rule="nonzero"/><path fill="#000000" fill-opacity="0.0" clip-path="url(#id_0)" d="M279.56668 271.40167C279.56668 273.05853 278.2235 274.40167 276.56668 274.40167C274.90982 274.40167 273.56668 273.05853 273.56668 271.40167C273.56668 269.7448 274.90982 268.40167 276.56668 268.40167C278.2235 268.40167 279.56668 269.7448 279.56668 271.40167Z" fill-rule="nonzero"/><path fill="#000000" fill-opacity="0.0" clip-path="url(#id_0)" d="M335.0 247.68407C335.0 249.34093 333.65686 250.68407 332.0 250.68407C330.34314 250.68407 329.0 249.34093 329.0 247.68407C329.0 246.02722 330.34314 244.68407 332.0 244.68407C333.65686 244.68407 335.0 246.02722 335.0 247.68407Z" fill-rule="nonzero"/><path fill="#000000" fill-opacity="0.0" clip-path="url(#id_0)" d="M390.43332 252.70497C390.43332 254.36183 389.09018 255.70497 387.43332 255.70497C385.7765 255.70497 384.43332 254.36183 384.43332 252.70497C384.43332 251.04811 385.7765 249.70497 387.43332 249.70497C389.09018 249.70497 390.43332 251.04811 390.43332 252.70497Z" fill-rule="nonzero"/><path fill="#000000" fill-opacity="0.0" clip-path="url(#id_0)" d="M445.86667 174.04414C445.86667 175.701 444.52353 177.04414 442.86667 177.04414C441.2098 177.04414 439.86667 175.701 439.86667 174.04414C439.86667 172.3873 441.2098 171.04414 442.86667 171.04414C444.52353 171.04414 445.86667 172.3873 445.86667 174.04414Z" fill-rule="nonzero"/><path fill="#000000" fill-opacity="0.0" clip-path="url(#id_0)" d="M501.3 88.3011C501.3 89.95796 499.95685 91.3011 498.3 91.3011C496.64316 91.3011 495.3 89.95796 495.3 88.3011C495.3 86.64425 496.64316 85.3011 498.3 85.3011C499.95685 85.3011 501.3 86.64425 501.3 88.3011Z" fill-rule="nonzero"/><path fill="#000000" fill-opacity="0.0" clip-path="url(#id_0)" d="M556.73334 72.315414C556.73334 73.97227 555.3902 75.315414 553.73334 75.315414C552.0765 75.315414 550.73334 73.97227 550.73334 72.315414C550.73334 70.65856 552.0765 69.315414 553.73334 69.315414C555.3902 69.315414 556.73334 70.65856 556.73334 72.315414Z" fill-rule="nonzero"/><path fill="#000000" d="M273.54688 345.09064Q273.54688 346.27814 273.01562 347.2469Q272.5 348.21564 271.64062 348.7469Q271.04688 349.1219 270.3125 349.29376Q269.57812 349.45 268.375 349.45L266.17188 349.45L266.17188 340.73126L268.35938 340.73126Q269.625 340.73126 270.375 340.91876Q271.14062 341.09064 271.65625 341.41876Q272.54688 341.96564 273.04688 342.90314Q273.54688 343.825 273.54688 345.09064ZM272.32812 345.075Q272.32812 344.0594 271.96875 343.35626Q271.60938 342.65314 270.90625 342.2469Q270.39062 341.95 269.8125 341.84064Q269.23438 341.71564 268.42188 341.71564L267.32812 341.71564L267.32812 348.45L268.42188 348.45Q269.26562 348.45 269.89062 348.325Q270.51562 348.2 271.03125 347.8719Q271.6875 347.45 272.0 346.77814Q272.32812 346.09064 272.32812 345.075ZM280.5625 346.29376L275.73438 346.29376Q275.73438 346.8875 275.92188 347.34064Q276.10938 347.79376 276.42188 348.075Q276.71875 348.35626 277.14062 348.4969Q277.5625 348.6375 278.0625 348.6375Q278.73438 348.6375 279.40625 348.3719Q280.09375 348.10626 280.375 347.85626L280.4375 347.85626L280.4375 349.04376Q279.875 349.27814 279.29688 349.45Q278.71875 349.60626 278.07812 349.60626Q276.45312 349.60626 275.53125 348.73126Q274.625 347.84064 274.625 346.21564Q274.625 344.60626 275.5 343.66876Q276.375 342.71564 277.79688 342.71564Q279.125 342.71564 279.84375 343.4969Q280.5625 344.2625 280.5625 345.7L280.5625 346.29376ZM279.48438 345.45Q279.48438 344.575 279.04688 344.10626Q278.625 343.6375 277.75 343.6375Q276.85938 343.6375 276.32812 344.15314Q275.8125 344.66876 275.73438 345.45L279.48438 345.45ZM284.20312 349.45L283.09375 349.45L283.09375 340.325L284.20312 340.325L284.20312 349.45ZM291.17188 349.45L290.07812 349.45L290.07812 348.7469Q289.92188 348.85626 289.67188 349.04376Q289.4375 349.21564 289.20312 349.3094Q288.92188 349.45 288.5625 349.54376Q288.20312 349.6375 287.71875 349.6375Q286.84375 349.6375 286.21875 349.0594Q285.60938 348.46564 285.60938 347.54376Q285.60938 346.8094 285.92188 346.35626Q286.25 345.8875 286.84375 345.6219Q287.4375 345.35626 288.26562 345.2625Q289.10938 345.16876 290.07812 345.1219L290.07812 344.95Q290.07812 344.575 289.9375 344.34064Q289.8125 344.09064 289.5625 343.95Q289.32812 343.8094 289.0 343.7625Q288.67188 343.71564 288.3125 343.71564Q287.89062 343.71564 287.34375 343.84064Q286.8125 343.95 286.25 344.16876L286.1875 344.16876L286.1875 343.04376Q286.51562 342.95 287.125 342.85626Q287.73438 342.7469 288.32812 342.7469Q289.01562 342.7469 289.53125 342.8719Q290.04688 342.98126 290.42188 343.2469Q290.78125 343.5125 290.96875 343.95Q291.17188 344.3719 291.17188 345.0125L291.17188 349.45ZM290.07812 347.84064L290.07812 346.0125Q289.57812 346.04376 288.89062 346.10626Q288.20312 346.16876 287.8125 346.27814Q287.32812 346.40314 287.03125 346.7Q286.75 346.98126 286.75 347.48126Q286.75 348.04376 287.07812 348.325Q287.42188 348.60626 288.125 348.60626Q288.70312 348.60626 289.1875 348.3875Q289.67188 348.15314 290.07812 347.84064ZM299.75 342.90314L295.92188 351.8719L294.75 351.8719L295.96875 349.1375L293.35938 342.90314L294.54688 342.90314L296.5625 347.7625L298.59375 342.90314L299.75 342.90314ZM308.59375 351.8719L307.25 351.8719Q306.20312 350.66876 305.625 349.2625Q305.0625 347.85626 305.0625 346.09064Q305.0625 344.34064 305.625 342.9344Q306.20312 341.52814 307.25 340.325L308.59375 340.325L308.59375 340.3875Q308.10938 340.825 307.67188 341.3875Q307.25 341.9344 306.89062 342.6844Q306.53125 343.40314 306.3125 344.27814Q306.09375 345.1375 306.09375 346.09064Q306.09375 347.10626 306.29688 347.9344Q306.51562 348.7625 306.89062 349.5125Q307.23438 350.23126 307.6875 350.8094Q308.14062 351.40314 308.59375 351.8094L308.59375 351.8719ZM319.64062 349.45L318.53125 349.45L318.53125 345.71564Q318.53125 345.29376 318.48438 344.90314Q318.45312 344.5125 318.32812 344.27814Q318.20312 344.02814 317.95312 343.90314Q317.70312 343.77814 317.21875 343.77814Q316.76562 343.77814 316.29688 344.0125Q315.82812 344.23126 315.375 344.59064Q315.39062 344.73126 315.39062 344.91876Q315.40625 345.09064 315.40625 345.2625L315.40625 349.45L314.3125 349.45L314.3125 345.71564Q314.3125 345.29376 314.26562 344.90314Q314.23438 344.5125 314.10938 344.27814Q313.96875 344.02814 313.71875 343.90314Q313.46875 343.77814 313.0 343.77814Q312.54688 343.77814 312.09375 343.9969Q311.64062 344.21564 311.1875 344.5594L311.1875 349.45L310.07812 349.45L310.07812 342.90314L311.1875 342.90314L311.1875 343.6375Q311.70312 343.2 312.21875 342.96564Q312.73438 342.71564 313.3125 342.71564Q313.96875 342.71564 314.4375 342.9969Q314.90625 343.27814 315.14062 343.77814Q315.79688 343.21564 316.34375 342.96564Q316.90625 342.71564 317.53125 342.71564Q318.60938 342.71564 319.125 343.3719Q319.64062 344.02814 319.64062 345.2L319.64062 349.45ZM322.26562 341.8094L321.03125 341.8094L321.03125 340.66876L322.26562 340.66876L322.26562 341.8094ZM322.20312 349.45L321.09375 349.45L321.09375 342.90314L322.20312 342.90314L322.20312 349.45ZM328.92188 349.04376Q328.375 349.3094 327.875 349.45Q327.39062 349.59064 326.82812 349.59064Q326.125 349.59064 325.53125 349.3875Q324.9375 349.1844 324.51562 348.7625Q324.07812 348.34064 323.84375 347.7Q323.60938 347.04376 323.60938 346.1844Q323.60938 344.575 324.48438 343.66876Q325.375 342.7469 326.82812 342.7469Q327.39062 342.7469 327.92188 342.91876Q328.46875 343.075 328.92188 343.29376L328.92188 344.52814L328.85938 344.52814Q328.35938 344.1219 327.82812 343.91876Q327.29688 343.7 326.78125 343.7Q325.84375 343.7 325.29688 344.34064Q324.76562 344.96564 324.76562 346.1844Q324.76562 347.3719 325.28125 348.0125Q325.8125 348.6375 326.78125 348.6375Q327.10938 348.6375 327.45312 348.5594Q327.8125 348.46564 328.07812 348.325Q328.32812 348.2 328.53125 348.0594Q328.75 347.91876 328.85938 347.825L328.92188 347.825L328.92188 349.04376ZM334.17188 344.10626L334.10938 344.10626Q333.85938 344.04376 333.625 344.02814Q333.40625 343.9969 333.07812 343.9969Q332.57812 343.9969 332.09375 344.23126Q331.625 344.45 331.1875 344.8094L331.1875 349.45L330.07812 349.45L330.07812 342.90314L331.1875 342.90314L331.1875 343.8719Q331.84375 343.34064 332.34375 343.1219Q332.84375 342.90314 333.35938 342.90314Q333.65625 342.90314 333.78125 342.91876Q333.90625 342.9344 334.17188 342.98126L334.17188 344.10626ZM340.65625 346.1844Q340.65625 347.77814 339.82812 348.71564Q339.01562 349.6375 337.64062 349.6375Q336.25 349.6375 335.4375 348.71564Q334.625 347.77814 334.625 346.1844Q334.625 344.575 335.4375 343.65314Q336.25 342.71564 337.64062 342.71564Q339.01562 342.71564 339.82812 343.65314Q340.65625 344.575 340.65625 346.1844ZM339.53125 346.1844Q339.53125 344.90314 339.03125 344.29376Q338.53125 343.66876 337.64062 343.66876Q336.75 343.66876 336.25 344.29376Q335.76562 344.90314 335.76562 346.1844Q335.76562 347.40314 336.25 348.04376Q336.75 348.6844 337.64062 348.6844Q338.53125 348.6844 339.03125 348.0594Q339.53125 347.41876 339.53125 346.1844ZM347.76562 347.5594Q347.76562 348.46564 347.01562 349.04376Q346.28125 349.60626 345.0 349.60626Q344.26562 349.60626 343.65625 349.4344Q343.0625 349.2625 342.64062 349.0594L342.64062 347.825L342.70312 347.825Q343.21875 348.21564 343.85938 348.45Q344.5 348.66876 345.09375 348.66876Q345.8125 348.66876 346.21875 348.4344Q346.64062 348.2 346.64062 347.7Q346.64062 347.3094 346.40625 347.1219Q346.1875 346.91876 345.5625 346.77814Q345.32812 346.73126 344.9375 346.66876Q344.5625 346.59064 344.25 346.4969Q343.39062 346.27814 343.03125 345.84064Q342.67188 345.3875 342.67188 344.7469Q342.67188 344.34064 342.84375 343.98126Q343.01562 343.6219 343.34375 343.34064Q343.67188 343.075 344.17188 342.91876Q344.6875 342.7469 345.3125 342.7469Q345.90625 342.7469 346.5 342.8875Q347.10938 343.02814 347.5 343.23126L347.5 344.41876L347.4375 344.41876Q347.01562 344.10626 346.40625 343.90314Q345.8125 343.6844 345.23438 343.6844Q344.625 343.6844 344.20312 343.91876Q343.79688 344.1375 343.79688 344.59064Q343.79688 344.9969 344.04688 345.2Q344.29688 345.41876 344.84375 345.54376Q345.15625 345.60626 345.53125 345.6844Q345.90625 345.7469 346.15625 345.8094Q346.92188 345.98126 347.34375 346.41876Q347.76562 346.84064 347.76562 347.5594ZM355.5625 346.29376L350.73438 346.29376Q350.73438 346.8875 350.92188 347.34064Q351.10938 347.79376 351.42188 348.075Q351.71875 348.35626 352.14062 348.4969Q352.5625 348.6375 353.0625 348.6375Q353.73438 348.6375 354.40625 348.3719Q355.09375 348.10626 355.375 347.85626L355.4375 347.85626L355.4375 349.04376Q354.875 349.27814 354.29688 349.45Q353.71875 349.60626 353.07812 349.60626Q351.45312 349.60626 350.53125 348.73126Q349.625 347.84064 349.625 346.21564Q349.625 344.60626 350.5 343.66876Q351.375 342.71564 352.79688 342.71564Q354.125 342.71564 354.84375 343.4969Q355.5625 344.2625 355.5625 345.7L355.5625 346.29376ZM354.48438 345.45Q354.48438 344.575 354.04688 344.10626Q353.625 343.6375 352.75 343.6375Q351.85938 343.6375 351.32812 344.15314Q350.8125 344.66876 350.73438 345.45L354.48438 345.45ZM362.92188 349.04376Q362.375 349.3094 361.875 349.45Q361.39062 349.59064 360.82812 349.59064Q360.125 349.59064 359.53125 349.3875Q358.9375 349.1844 358.51562 348.7625Q358.07812 348.34064 357.84375 347.7Q357.60938 347.04376 357.60938 346.1844Q357.60938 344.575 358.48438 343.66876Q359.375 342.7469 360.82812 342.7469Q361.39062 342.7469 361.92188 342.91876Q362.46875 343.075 362.92188 343.29376L362.92188 344.52814L362.85938 344.52814Q362.35938 344.1219 361.82812 343.91876Q361.29688 343.7 360.78125 343.7Q359.84375 343.7 359.29688 344.34064Q358.76562 344.96564 358.76562 346.1844Q358.76562 347.3719 359.28125 348.0125Q359.8125 348.6375 360.78125 348.6375Q361.10938 348.6375 361.45312 348.5594Q361.8125 348.46564 362.07812 348.325Q362.32812 348.2 362.53125 348.0594Q362.75 347.91876 362.85938 347.825L362.92188 347.825L362.92188 349.04376ZM369.65625 346.1844Q369.65625 347.77814 368.82812 348.71564Q368.01562 349.6375 366.64062 349.6375Q365.25 349.6375 364.4375 348.71564Q363.625 347.77814 363.625 346.1844Q363.625 344.575 364.4375 343.65314Q365.25 342.71564 366.64062 342.71564Q368.01562 342.71564 368.82812 343.65314Q369.65625 344.575 369.65625 346.1844ZM368.53125 346.1844Q368.53125 344.90314 368.03125 344.29376Q367.53125 343.66876 366.64062 343.66876Q365.75 343.66876 365.25 344.29376Q364.76562 344.90314 364.76562 346.1844Q364.76562 347.40314 365.25 348.04376Q365.75 348.6844 366.64062 348.6844Q367.53125 348.6844 368.03125 348.0594Q368.53125 347.41876 368.53125 346.1844ZM377.5625 349.45L376.45312 349.45L376.45312 345.71564Q376.45312 345.27814 376.39062 344.8875Q376.34375 344.48126 376.20312 344.2625Q376.0625 344.0125 375.78125 343.90314Q375.51562 343.77814 375.07812 343.77814Q374.625 343.77814 374.125 343.9969Q373.64062 344.21564 373.1875 344.5594L373.1875 349.45L372.07812 349.45L372.07812 342.90314L373.1875 342.90314L373.1875 343.6375Q373.70312 343.2 374.25 342.96564Q374.79688 342.71564 375.39062 342.71564Q376.4375 342.71564 377.0 343.35626Q377.5625 343.9969 377.5625 345.2L377.5625 349.45ZM385.39062 349.45L384.29688 349.45L384.29688 348.7625Q383.8125 349.16876 383.29688 349.40314Q382.78125 349.6375 382.1875 349.6375Q381.01562 349.6375 380.32812 348.73126Q379.64062 347.825 379.64062 346.23126Q379.64062 345.3875 379.875 344.7469Q380.10938 344.09064 380.51562 343.6375Q380.90625 343.1844 381.4375 342.95Q381.96875 342.71564 382.54688 342.71564Q383.0625 342.71564 383.45312 342.825Q383.85938 342.9344 384.29688 343.16876L384.29688 340.325L385.39062 340.325L385.39062 349.45ZM384.29688 347.84064L384.29688 344.075Q383.84375 343.8875 383.48438 343.8094Q383.14062 343.73126 382.73438 343.73126Q381.79688 343.73126 381.28125 344.3719Q380.76562 345.0125 380.76562 346.2Q380.76562 347.3719 381.15625 347.98126Q381.5625 348.575 382.45312 348.575Q382.92188 348.575 383.39062 348.3719Q383.875 348.16876 384.29688 347.84064ZM392.76562 347.5594Q392.76562 348.46564 392.01562 349.04376Q391.28125 349.60626 390.0 349.60626Q389.26562 349.60626 388.65625 349.4344Q388.0625 349.2625 387.64062 349.0594L387.64062 347.825L387.70312 347.825Q388.21875 348.21564 388.85938 348.45Q389.5 348.66876 390.09375 348.66876Q390.8125 348.66876 391.21875 348.4344Q391.64062 348.2 391.64062 347.7Q391.64062 347.3094 391.40625 347.1219Q391.1875 346.91876 390.5625 346.77814Q390.32812 346.73126 389.9375 346.66876Q389.5625 346.59064 389.25 346.4969Q388.39062 346.27814 388.03125 345.84064Q387.67188 345.3875 387.67188 344.7469Q387.67188 344.34064 387.84375 343.98126Q388.01562 343.6219 388.34375 343.34064Q388.67188 343.075 389.17188 342.91876Q389.6875 342.7469 390.3125 342.7469Q390.90625 342.7469 391.5 342.8875Q392.10938 343.02814 392.5 343.23126L392.5 344.41876L392.4375 344.41876Q392.01562 344.10626 391.40625 343.90314Q390.8125 343.6844 390.23438 343.6844Q389.625 343.6844 389.20312 343.91876Q388.79688 344.1375 388.79688 344.59064Q388.79688 344.9969 389.04688 345.2Q389.29688 345.41876 389.84375 345.54376Q390.15625 345.60626 390.53125 345.6844Q390.90625 345.7469 391.15625 345.8094Q391.92188 345.98126 392.34375 346.41876Q392.76562 346.84064 392.76562 347.5594ZM398.39062 346.09064Q398.39062 347.85626 397.8125 349.2625Q397.23438 350.66876 396.20312 351.8719L394.85938 351.8719L394.85938 351.8094Q395.3125 351.40314 395.76562 350.8094Q396.21875 350.23126 396.5625 349.5125Q396.9375 348.7625 397.14062 347.9344Q397.35938 347.10626 397.35938 346.09064Q397.35938 345.1375 397.14062 344.27814Q396.92188 343.40314 396.5625 342.6844Q396.20312 341.9344 395.76562 341.3875Q395.34375 340.825 394.85938 340.3875L394.85938 340.325L396.20312 340.325Q397.23438 341.52814 397.8125 342.9344Q398.39062 344.34064 398.39062 346.09064Z" fill-rule="nonzero"/><path fill="#000000" d="M27.190638 234.63646Q28.378138 234.63646 29.346888 235.16771Q30.315638 235.68333 30.846888 236.54271Q31.221888 237.13646 31.393763 237.87083Q31.550013 238.60521 31.550013 239.80833L31.550013 242.01146L22.831263 242.01146L22.831263 239.82396Q22.831263 238.55833 23.018763 237.80833Q23.190638 237.04271 23.518763 236.52708Q24.065638 235.63646 25.003138 235.13646Q25.925013 234.63646 27.190638 234.63646ZM27.175013 235.85521Q26.159388 235.85521 25.456263 236.21458Q24.753138 236.57396 24.346888 237.27708Q24.050013 237.79271 23.940638 238.37083Q23.815638 238.94896 23.815638 239.76146L23.815638 240.85521L30.550013 240.85521L30.550013 239.76146Q30.550013 238.91771 30.425013 238.29271Q30.300013 237.66771 29.971888 237.15208Q29.550013 236.49583 28.878138 236.18333Q28.190638 235.85521 27.175013 235.85521ZM31.550013 227.66771L31.550013 228.77708L30.815638 228.77708Q31.268763 229.32396 31.503138 229.83958Q31.737513 230.35521 31.737513 230.96458Q31.737513 231.99583 31.112513 232.57396Q30.471888 233.15208 29.253138 233.15208L25.003138 233.15208L25.003138 232.04271L28.737513 232.04271Q29.221888 232.04271 29.581263 231.99583Q29.940638 231.94896 30.190638 231.79271Q30.440638 231.63646 30.565638 231.38646Q30.675013 231.13646 30.675013 230.65208Q30.675013 230.23021 30.456263 229.73021Q30.237513 229.21458 29.893763 228.77708L25.003138 228.77708L25.003138 227.66771L31.550013 227.66771ZM26.206263 221.01146L26.206263 221.07396Q26.143763 221.32396 26.128138 221.55833Q26.096888 221.77708 26.096888 222.10521Q26.096888 222.60521 26.331263 223.08958Q26.550013 223.55833 26.909388 223.99583L31.550013 223.99583L31.550013 225.10521L25.003138 225.10521L25.003138 223.99583L25.971888 223.99583Q25.440638 223.33958 25.221888 222.83958Q25.003138 222.33958 25.003138 221.82396Q25.003138 221.52708 25.018763 221.40208Q25.034388 221.27708 25.081263 221.01146L26.206263 221.01146ZM31.550013 215.01146L31.550013 216.10521L30.846888 216.10521Q30.956263 216.26146 31.143763 216.51146Q31.315638 216.74583 31.409388 216.98021Q31.550013 217.26146 31.643763 217.62083Q31.737513 217.98021 31.737513 218.46458Q31.737513 219.33958 31.159388 219.96458Q30.565638 220.57396 29.643763 220.57396Q28.909388 220.57396 28.456263 220.26146Q27.987513 219.93333 27.721888 219.33958Q27.456263 218.74583 27.362513 217.91771Q27.268763 217.07396 27.221888 216.10521L27.050013 216.10521Q26.675013 216.10521 26.440638 216.24583Q26.190638 216.37083 26.050013 216.62083Q25.909388 216.85521 25.862513 217.18333Q25.815638 217.51146 25.815638 217.87083Q25.815638 218.29271 25.940638 218.83958Q26.050013 219.37083 26.268763 219.93333L26.268763 219.99583L25.143763 219.99583Q25.050013 219.66771 24.956263 219.05833Q24.846888 218.44896 24.846888 217.85521Q24.846888 217.16771 24.971888 216.65208Q25.081263 216.13646 25.346888 215.76146Q25.612513 215.40208 26.050013 215.21458Q26.471888 215.01146 27.112513 215.01146L31.550013 215.01146ZM29.940638 216.10521L28.112513 216.10521Q28.143763 216.60521 28.206263 217.29271Q28.268763 217.98021 28.378138 218.37083Q28.503138 218.85521 28.800013 219.15208Q29.081263 219.43333 29.581263 219.43333Q30.143763 219.43333 30.425013 219.10521Q30.706263 218.76146 30.706263 218.05833Q30.706263 217.48021 30.487513 216.99583Q30.253138 216.51146 29.940638 216.10521ZM31.487513 208.69896Q31.581263 209.01146 31.628138 209.38646Q31.675013 209.74583 31.675013 210.02708Q31.675013 211.02708 31.143763 211.55833Q30.596888 212.07396 29.409388 212.07396L25.925013 212.07396L25.925013 212.82396L25.003138 212.82396L25.003138 212.07396L23.128138 212.07396L23.128138 210.98021L25.003138 210.98021L25.003138 208.69896L25.925013 208.69896L25.925013 210.98021L28.909388 210.98021Q29.425013 210.98021 29.721888 210.96458Q30.003138 210.93333 30.253138 210.79271Q30.487513 210.65208 30.596888 210.43333Q30.706263 210.19896 30.706263 209.74583Q30.706263 209.48021 30.628138 209.18333Q30.550013 208.88646 30.503138 208.76146L30.503138 208.69896L31.487513 208.69896ZM23.909388 205.91771L23.909388 207.15208L22.768763 207.15208L22.768763 205.91771L23.909388 205.91771ZM31.550013 205.98021L31.550013 207.08958L25.003138 207.08958L25.003138 205.98021L31.550013 205.98021ZM28.284388 198.52708Q29.878138 198.52708 30.815638 199.35521Q31.737513 200.16771 31.737513 201.54271Q31.737513 202.93333 30.815638 203.74583Q29.878138 204.55833 28.284388 204.55833Q26.675013 204.55833 25.753138 203.74583Q24.815638 202.93333 24.815638 201.54271Q24.815638 200.16771 25.753138 199.35521Q26.675013 198.52708 28.284388 198.52708ZM28.284388 199.65208Q27.003138 199.65208 26.393763 200.15208Q25.768763 200.65208 25.768763 201.54271Q25.768763 202.43333 26.393763 202.93333Q27.003138 203.41771 28.284388 203.41771Q29.503138 203.41771 30.143763 202.93333Q30.784388 202.43333 30.784388 201.54271Q30.784388 200.65208 30.159388 200.15208Q29.518763 199.65208 28.284388 199.65208ZM31.550013 190.62083L31.550013 191.73021L27.815638 191.73021Q27.378138 191.73021 26.987513 191.79271Q26.581263 191.83958 26.362513 191.98021Q26.112513 192.12083 26.003138 192.40208Q25.878138 192.66771 25.878138 193.10521Q25.878138 193.55833 26.096888 194.05833Q26.315638 194.54271 26.659388 194.99583L31.550013 194.99583L31.550013 196.10521L25.003138 196.10521L25.003138 194.99583L25.737513 194.99583Q25.300013 194.48021 25.065638 193.93333Q24.815638 193.38646 24.815638 192.79271Q24.815638 191.74583 25.456263 191.18333Q26.096888 190.62083 27.300013 190.62083L31.550013 190.62083ZM33.971886 180.58958L33.971886 181.93333Q32.76876 182.98021 31.362513 183.55833Q29.956263 184.12083 28.190638 184.12083Q26.440638 184.12083 25.034388 183.55833Q23.628138 182.98021 22.425013 181.93333L22.425013 180.58958L22.487513 180.58958Q22.925013 181.07396 23.487513 181.51146Q24.034388 181.93333 24.784388 182.29271Q25.503138 182.65208 26.378138 182.87083Q27.237513 183.08958 28.190638 183.08958Q29.206263 183.08958 30.034388 182.88646Q30.862513 182.66771 31.612513 182.29271Q32.33126 181.94896 32.909386 181.49583Q33.503136 181.04271 33.909386 180.58958L33.971886 180.58958ZM29.065638 172.66771Q29.565638 172.66771 30.065638 172.91771Q30.565638 173.15208 30.909388 173.57396Q31.284388 174.04271 31.503138 174.66771Q31.706263 175.29271 31.706263 176.16771Q31.706263 177.10521 31.534388 177.87083Q31.362513 178.62083 31.003138 179.40208L29.550013 179.40208L29.550013 179.30833Q30.112513 178.65208 30.409388 177.79271Q30.706263 176.91771 30.706263 176.15208Q30.706263 175.07396 30.300013 174.48021Q29.893763 173.87083 29.221888 173.87083Q28.643763 173.87083 28.378138 174.16771Q28.096888 174.44896 27.940638 175.02708Q27.815638 175.46458 27.753138 175.98021Q27.675013 176.49583 27.550013 177.05833Q27.300013 178.23021 26.706263 178.79271Q26.112513 179.33958 25.159388 179.33958Q24.065638 179.33958 23.362513 178.41771Q22.659388 177.49583 22.659388 176.07396Q22.659388 175.15208 22.846888 174.38646Q23.018763 173.62083 23.268763 173.02708L24.643763 173.02708L24.643763 173.10521Q24.221888 173.60521 23.956263 174.41771Q23.675013 175.23021 23.675013 176.07396Q23.675013 177.01146 24.065638 177.57396Q24.440638 178.13646 25.050013 178.13646Q25.596888 178.13646 25.909388 177.85521Q26.221888 177.57396 26.378138 176.87083Q26.456263 176.49583 26.581263 175.80833Q26.690638 175.10521 26.815638 174.62083Q27.081263 173.65208 27.612513 173.16771Q28.128138 172.66771 29.065638 172.66771ZM28.393763 165.62083L28.393763 170.44896Q28.987513 170.44896 29.440638 170.26146Q29.893763 170.07396 30.175013 169.76146Q30.456263 169.46458 30.596888 169.04271Q30.737513 168.62083 30.737513 168.12083Q30.737513 167.44896 30.471888 166.77708Q30.206263 166.08958 29.956263 165.80833L29.956263 165.74583L31.143763 165.74583Q31.378138 166.30833 31.550013 166.88646Q31.706263 167.46458 31.706263 168.10521Q31.706263 169.73021 30.831263 170.65208Q29.940638 171.55833 28.315638 171.55833Q26.706263 171.55833 25.768763 170.68333Q24.815638 169.80833 24.815638 168.38646Q24.815638 167.05833 25.596888 166.33958Q26.362513 165.62083 27.800013 165.62083L28.393763 165.62083ZM27.550013 166.69896Q26.675013 166.69896 26.206263 167.13646Q25.737513 167.55833 25.737513 168.43333Q25.737513 169.32396 26.253138 169.85521Q26.768763 170.37083 27.550013 170.44896L27.550013 166.69896ZM31.143763 158.26146Q31.409388 158.80833 31.550013 159.30833Q31.690638 159.79271 31.690638 160.35521Q31.690638 161.05833 31.487513 161.65208Q31.284388 162.24583 30.862513 162.66771Q30.440638 163.10521 29.800013 163.33958Q29.143763 163.57396 28.284388 163.57396Q26.675013 163.57396 25.768763 162.69896Q24.846888 161.80833 24.846888 160.35521Q24.846888 159.79271 25.018763 159.26146Q25.175013 158.71458 25.393763 158.26146L26.628138 158.26146L26.628138 158.32396Q26.221888 158.82396 26.018763 159.35521Q25.800013 159.88646 25.800013 160.40208Q25.800013 161.33958 26.440638 161.88646Q27.065638 162.41771 28.284388 162.41771Q29.471888 162.41771 30.112513 161.90208Q30.737513 161.37083 30.737513 160.40208Q30.737513 160.07396 30.659388 159.73021Q30.565638 159.37083 30.425013 159.10521Q30.300013 158.85521 30.159388 158.65208Q30.018763 158.43333 29.925013 158.32396L29.925013 158.26146L31.143763 158.26146ZM28.284388 151.52708Q29.878138 151.52708 30.815638 152.35521Q31.737513 153.16771 31.737513 154.54271Q31.737513 155.93333 30.815638 156.74583Q29.878138 157.55833 28.284388 157.55833Q26.675013 157.55833 25.753138 156.74583Q24.815638 155.93333 24.815638 154.54271Q24.815638 153.16771 25.753138 152.35521Q26.675013 151.52708 28.284388 151.52708ZM28.284388 152.65208Q27.003138 152.65208 26.393763 153.15208Q25.768763 153.65208 25.768763 154.54271Q25.768763 155.43333 26.393763 155.93333Q27.003138 156.41771 28.284388 156.41771Q29.503138 156.41771 30.143763 155.93333Q30.784388 155.43333 30.784388 154.54271Q30.784388 153.65208 30.159388 153.15208Q29.518763 152.65208 28.284388 152.65208ZM31.550013 143.62083L31.550013 144.73021L27.815638 144.73021Q27.378138 144.73021 26.987513 144.79271Q26.581263 144.83958 26.362513 144.98021Q26.112513 145.12083 26.003138 145.40208Q25.878138 145.66771 25.878138 146.10521Q25.878138 146.55833 26.096888 147.05833Q26.315638 147.54271 26.659388 147.99583L31.550013 147.99583L31.550013 149.10521L25.003138 149.10521L25.003138 147.99583L25.737513 147.99583Q25.300013 147.48021 25.065638 146.93333Q24.815638 146.38646 24.815638 145.79271Q24.815638 144.74583 25.456263 144.18333Q26.096888 143.62083 27.300013 143.62083L31.550013 143.62083ZM31.550013 135.79271L31.550013 136.88646L30.862513 136.88646Q31.268763 137.37083 31.503138 137.88646Q31.737513 138.40208 31.737513 138.99583Q31.737513 140.16771 30.831263 140.85521Q29.925013 141.54271 28.331263 141.54271Q27.487513 141.54271 26.846888 141.30833Q26.190638 141.07396 25.737513 140.66771Q25.284388 140.27708 25.050013 139.74583Q24.815638 139.21458 24.815638 138.63646Q24.815638 138.12083 24.925013 137.73021Q25.034388 137.32396 25.268763 136.88646L22.425013 136.88646L22.425013 135.79271L31.550013 135.79271ZM29.940638 136.88646L26.175013 136.88646Q25.987513 137.33958 25.909388 137.69896Q25.831263 138.04271 25.831263 138.44896Q25.831263 139.38646 26.471888 139.90208Q27.112513 140.41771 28.300013 140.41771Q29.471888 140.41771 30.081263 140.02708Q30.675013 139.62083 30.675013 138.73021Q30.675013 138.26146 30.471888 137.79271Q30.268763 137.30833 29.940638 136.88646ZM29.659388 128.41771Q30.565638 128.41771 31.143763 129.16771Q31.706263 129.90208 31.706263 131.18333Q31.706263 131.91771 31.534388 132.52708Q31.362513 133.12083 31.159388 133.54271L29.925013 133.54271L29.925013 133.48021Q30.315638 132.96458 30.550013 132.32396Q30.768763 131.68333 30.768763 131.08958Q30.768763 130.37083 30.534388 129.96458Q30.300013 129.54271 29.800013 129.54271Q29.409388 129.54271 29.221888 129.77708Q29.018763 129.99583 28.878138 130.62083Q28.831263 130.85521 28.768763 131.24583Q28.690638 131.62083 28.596888 131.93333Q28.378138 132.79271 27.940638 133.15208Q27.487513 133.51146 26.846888 133.51146Q26.440638 133.51146 26.081263 133.33958Q25.721888 133.16771 25.440638 132.83958Q25.175013 132.51146 25.018763 132.01146Q24.846888 131.49583 24.846888 130.87083Q24.846888 130.27708 24.987513 129.68333Q25.128138 129.07396 25.331263 128.68333L26.518763 128.68333L26.518763 128.74583Q26.206263 129.16771 26.003138 129.77708Q25.784388 130.37083 25.784388 130.94896Q25.784388 131.55833 26.018763 131.98021Q26.237513 132.38646 26.690638 132.38646Q27.096888 132.38646 27.300013 132.13646Q27.518763 131.88646 27.643763 131.33958Q27.706263 131.02708 27.784388 130.65208Q27.846888 130.27708 27.909388 130.02708Q28.081263 129.26146 28.518763 128.83958Q28.940638 128.41771 29.659388 128.41771ZM28.190638 122.79271Q29.956263 122.79271 31.362513 123.370834Q32.76876 123.94896 33.971886 124.98021L33.971886 126.32396L33.909386 126.32396Q33.503136 125.870834 32.909386 125.41771Q32.33126 124.964584 31.612513 124.620834Q30.862513 124.245834 30.034388 124.04271Q29.206263 123.82396 28.190638 123.82396Q27.237513 123.82396 26.378138 124.04271Q25.503138 124.26146 24.784388 124.620834Q24.034388 124.98021 23.487513 125.41771Q22.925013 125.839584 22.487513 126.32396L22.425013 126.32396L22.425013 124.98021Q23.628138 123.94896 25.034388 123.370834Q26.440638 122.79271 28.190638 122.79271Z" fill-rule="nonzero"/><path fill="#000000" d="M74.90938 301.45L70.175 301.45L70.175 300.5594L72.00313 300.5594L72.00313 294.71564L70.175 294.71564L70.175 293.91876Q70.55 293.91876 70.97188 293.85626Q71.39375 293.79376 71.6125 293.66876Q71.87813 293.52814 72.03438 293.3094Q72.19063 293.075 72.20625 292.7L73.12813 292.7L73.12813 300.5594L74.90938 300.5594L74.90938 301.45Z" fill-rule="nonzero"/><path fill="#000000" d="M75.33125 223.82666Q75.33125 224.43604 75.09688 224.99854Q74.87813 225.54541 74.50313 225.92041Q74.08125 226.32666 73.4875 226.56104Q72.90938 226.77979 72.14375 226.77979Q71.425 226.77979 70.75313 226.62354Q70.09688 226.46729 69.64375 226.26416L69.64375 225.02979L69.72188 225.02979Q70.20625 225.32666 70.84688 225.54541Q71.50313 225.76416 72.1125 225.76416Q72.53438 225.76416 72.925 225.65479Q73.31563 225.52979 73.6125 225.23291Q73.87813 224.98291 74.00313 224.63916Q74.14375 224.27979 74.14375 223.81104Q74.14375 223.35791 73.9875 223.06104Q73.83125 222.74854 73.55 222.56104Q73.25313 222.32666 72.81563 222.24854Q72.37813 222.15479 71.83125 222.15479Q71.31563 222.15479 70.83125 222.23291Q70.3625 222.29541 70.01875 222.35791L70.01875 217.87354L75.26875 217.87354L75.26875 218.88916L71.15938 218.88916L71.15938 221.21729Q71.40938 221.18604 71.65938 221.18604Q71.925 221.17041 72.12813 221.17041Q72.83125 221.17041 73.3625 221.29541Q73.89375 221.40479 74.34688 221.71729Q74.81563 222.02979 75.06563 222.54541Q75.33125 223.04541 75.33125 223.82666Z" fill-rule="nonzero"/><path fill="#000000" d="M66.90938 194.35281L62.175 194.35281L62.175 193.46219L64.00313 193.46219L64.00313 187.61844L62.175 187.61844L62.175 186.82156Q62.55 186.82156 62.971874 186.75906Q63.39375 186.69656 63.6125 186.57156Q63.878124 186.43094 64.03438 186.21219Q64.19063 185.97781 64.20625 185.60281L65.12813 185.60281L65.12813 193.46219L66.90938 193.46219L66.90938 194.35281ZM75.39375 189.99344Q75.39375 192.33719 74.65938 193.44656Q73.925 194.54031 72.37813 194.54031Q70.8 194.54031 70.06563 193.43094Q69.34688 192.30594 69.34688 189.99344Q69.34688 187.66531 70.08125 186.55594Q70.81563 185.44656 72.37813 185.44656Q73.94063 185.44656 74.65938 186.58719Q75.39375 187.71219 75.39375 189.99344ZM73.84688 192.64969Q74.05 192.16531 74.12813 191.52469Q74.20625 190.88406 74.20625 189.99344Q74.20625 189.10281 74.12813 188.44656Q74.05 187.79031 73.84688 187.32156Q73.64375 186.86844 73.28438 186.64969Q72.925 186.41531 72.37813 186.41531Q71.81563 186.41531 71.45625 186.64969Q71.09688 186.86844 70.89375 187.33719Q70.69063 187.77469 70.6125 188.47781Q70.55 189.16531 70.55 189.99344Q70.55 190.91531 70.6125 191.54031Q70.675 192.14969 70.87813 192.63406Q71.08125 193.08719 71.425 193.33719Q71.78438 193.57156 72.37813 193.57156Q72.925 193.57156 73.28438 193.33719Q73.64375 193.10281 73.84688 192.64969Z" fill-rule="nonzero"/><path fill="#000000" d="M67.33125 116.72947Q67.33125 117.338844 67.09688 117.901344Q66.87813 118.44822 66.50313 118.82322Q66.08125 119.22947 65.4875 119.463844Q64.90938 119.682594 64.14375 119.682594Q63.425 119.682594 62.753124 119.526344Q62.096874 119.370094 61.64375 119.16697L61.64375 117.932594L61.721874 117.932594Q62.20625 118.22947 62.846874 118.44822Q63.503124 118.66697 64.1125 118.66697Q64.53438 118.66697 64.925 118.557594Q65.31563 118.432594 65.6125 118.13572Q65.87813 117.88572 66.00313 117.54197Q66.14375 117.182594 66.14375 116.713844Q66.14375 116.26072 65.9875 115.963844Q65.83125 115.651344 65.55 115.463844Q65.25313 115.22947 64.81563 115.151344Q64.37813 115.057594 63.83125 115.057594Q63.315624 115.057594 62.83125 115.13572Q62.3625 115.19822 62.01875 115.26072L62.01875 110.776344L67.26875 110.776344L67.26875 111.79197L63.159374 111.79197L63.159374 114.120094Q63.409374 114.088844 63.659374 114.088844Q63.925 114.07322 64.12813 114.07322Q64.83125 114.07322 65.3625 114.19822Q65.89375 114.307594 66.34688 114.620094Q66.81563 114.932594 67.06563 115.44822Q67.33125 115.94822 67.33125 116.72947ZM75.39375 115.13572Q75.39375 117.47947 74.65938 118.588844Q73.925 119.682594 72.37813 119.682594Q70.8 119.682594 70.06563 118.57322Q69.34688 117.44822 69.34688 115.13572Q69.34688 112.807594 70.08125 111.69822Q70.81563 110.588844 72.37813 110.588844Q73.94063 110.588844 74.65938 111.72947Q75.39375 112.85447 75.39375 115.13572ZM73.84688 117.79197Q74.05 117.307594 74.12813 116.66697Q74.20625 116.026344 74.20625 115.13572Q74.20625 114.245094 74.12813 113.588844Q74.05 112.932594 73.84688 112.463844Q73.64375 112.01072 73.28438 111.79197Q72.925 111.557594 72.37813 111.557594Q71.81563 111.557594 71.45625 111.79197Q71.09688 112.01072 70.89375 112.47947Q70.69063 112.91697 70.6125 113.620094Q70.55 114.307594 70.55 115.13572Q70.55 116.057594 70.6125 116.682594Q70.675 117.29197 70.87813 117.776344Q71.08125 118.22947 71.425 118.47947Q71.78438 118.713844 72.37813 118.713844Q72.925 118.713844 73.28438 118.47947Q73.64375 118.245094 73.84688 117.79197Z" fill-rule="nonzero"/><path fill="#000000" d="M58.909374 87.25563L54.175 87.25563L54.175 86.365005L56.003124 86.365005L56.003124 80.521255L54.175 80.521255L54.175 79.72438Q54.55 79.72438 54.971874 79.66188Q55.39375 79.59938 55.6125 79.47438Q55.878124 79.333755 56.034374 79.115005Q56.190624 78.88063 56.20625 78.50563L57.128124 78.50563L57.128124 86.365005L58.909374 86.365005L58.909374 87.25563ZM67.39375 82.896255Q67.39375 85.240005 66.65938 86.34938Q65.925 87.44313 64.37813 87.44313Q62.8 87.44313 62.065624 86.333755Q61.346874 85.208755 61.346874 82.896255Q61.346874 80.56813 62.08125 79.458755Q62.815624 78.34938 64.37813 78.34938Q65.94063 78.34938 66.65938 79.490005Q67.39375 80.615005 67.39375 82.896255ZM65.84688 85.552505Q66.05 85.06813 66.12813 84.427505Q66.20625 83.78688 66.20625 82.896255Q66.20625 82.00563 66.12813 81.34938Q66.05 80.69313 65.84688 80.22438Q65.64375 79.771255 65.28438 79.552505Q64.925 79.31813 64.37813 79.31813Q63.815624 79.31813 63.45625 79.552505Q63.096874 79.771255 62.89375 80.240005Q62.690624 80.677505 62.6125 81.38063Q62.55 82.06813 62.55 82.896255Q62.55 83.81813 62.6125 84.44313Q62.675 85.052505 62.878124 85.53688Q63.08125 85.990005 63.425 86.240005Q63.784374 86.47438 64.37813 86.47438Q64.925 86.47438 65.28438 86.240005Q65.64375 86.00563 65.84688 85.552505ZM75.39375 82.896255Q75.39375 85.240005 74.65938 86.34938Q73.925 87.44313 72.37813 87.44313Q70.8 87.44313 70.06563 86.333755Q69.34688 85.208755 69.34688 82.896255Q69.34688 80.56813 70.08125 79.458755Q70.81563 78.34938 72.37813 78.34938Q73.94063 78.34938 74.65938 79.490005Q75.39375 80.615005 75.39375 82.896255ZM73.84688 85.552505Q74.05 85.06813 74.12813 84.427505Q74.20625 83.78688 74.20625 82.896255Q74.20625 82.00563 74.12813 81.34938Q74.05 80.69313 73.84688 80.22438Q73.64375 79.771255 73.28438 79.552505Q72.925 79.31813 72.37813 79.31813Q71.81563 79.31813 71.45625 79.552505Q71.09688 79.771255 70.89375 80.240005Q70.69063 80.677505 70.6125 81.38063Q70.55 82.06813 70.55 82.896255Q70.55 83.81813 70.6125 84.44313Q70.675 85.052505 70.87813 85.53688Q71.08125 85.990005 71.425 86.240005Q71.78438 86.47438 72.37813 86.47438Q72.925 86.47438 73.28438 86.240005Q73.64375 86.00563 73.84688 85.552505Z" fill-rule="nonzero"/><path fill="#000000" d="M112.626045 315.45L107.89167 315.45L107.89167 314.5594L109.719795 314.5594L109.719795 308.71564L107.89167 308.71564L107.89167 307.91876Q108.26667 307.91876 108.688545 307.85626Q109.11042 307.79376 109.32917 307.66876Q109.594795 307.52814 109.751045 307.3094Q109.907295 307.075 109.92292 306.7L110.844795 306.7L110.844795 314.5594L112.626045 314.5594L112.626045 315.45Z" fill-rule="nonzero"/><path fill="#000000" d="M168.48125 312.6844Q168.48125 313.29376 168.24687 313.85626Q168.02812 314.40314 167.65312 314.77814Q167.23125 315.1844 166.6375 315.41876Q166.05937 315.6375 165.29375 315.6375Q164.575 315.6375 163.90312 315.48126Q163.24687 315.325 162.79375 315.1219L162.79375 313.8875L162.87187 313.8875Q163.35625 314.1844 163.99687 314.40314Q164.65312 314.6219 165.2625 314.6219Q165.68437 314.6219 166.075 314.5125Q166.46562 314.3875 166.7625 314.09064Q167.02812 313.84064 167.15312 313.4969Q167.29375 313.1375 167.29375 312.66876Q167.29375 312.21564 167.1375 311.91876Q166.98125 311.60626 166.7 311.41876Q166.40312 311.1844 165.96562 311.10626Q165.52812 311.0125 164.98125 311.0125Q164.46562 311.0125 163.98125 311.09064Q163.5125 311.15314 163.16875 311.21564L163.16875 306.73126L168.41875 306.73126L168.41875 307.7469L164.30937 307.7469L164.30937 310.075Q164.55937 310.04376 164.80937 310.04376Q165.075 310.02814 165.27812 310.02814Q165.98125 310.02814 166.5125 310.15314Q167.04375 310.2625 167.49687 310.575Q167.96562 310.8875 168.21562 311.40314Q168.48125 311.90314 168.48125 312.6844Z" fill-rule="nonzero"/><path fill="#000000" d="M219.97708 315.45L214.07083 315.45L214.07083 314.23126Q214.69583 313.7 215.3052 313.16876Q215.9302 312.6375 216.46146 312.1219Q217.58646 311.02814 217.9927 310.3875Q218.41458 309.7469 218.41458 308.9969Q218.41458 308.325 217.96146 307.95Q217.52396 307.5594 216.72708 307.5594Q216.1802 307.5594 215.5552 307.7469Q214.94583 307.9344 214.35208 308.325L214.28958 308.325L214.28958 307.09064Q214.71146 306.8875 215.39896 306.71564Q216.10208 306.54376 216.7427 306.54376Q218.08646 306.54376 218.85208 307.2Q219.6177 307.84064 219.6177 308.95Q219.6177 309.45 219.4927 309.8875Q219.3677 310.3094 219.1177 310.6844Q218.88333 311.0594 218.57083 311.41876Q218.27396 311.7625 217.83646 312.1844Q217.21146 312.79376 216.53958 313.3719Q215.8677 313.95 215.28958 314.45L219.97708 314.45L219.97708 315.45ZM227.91458 312.6844Q227.91458 313.29376 227.6802 313.85626Q227.46146 314.40314 227.08646 314.77814Q226.66458 315.1844 226.07083 315.41876Q225.4927 315.6375 224.72708 315.6375Q224.00833 315.6375 223.33646 315.48126Q222.6802 315.325 222.22708 315.1219L222.22708 313.8875L222.3052 313.8875Q222.78958 314.1844 223.4302 314.40314Q224.08646 314.6219 224.69583 314.6219Q225.1177 314.6219 225.50833 314.5125Q225.89896 314.3875 226.19583 314.09064Q226.46146 313.84064 226.58646 313.4969Q226.72708 313.1375 226.72708 312.66876Q226.72708 312.21564 226.57083 311.91876Q226.41458 311.60626 226.13333 311.41876Q225.83646 311.1844 225.39896 311.10626Q224.96146 311.0125 224.41458 311.0125Q223.89896 311.0125 223.41458 311.09064Q222.94583 311.15314 222.60208 311.21564L222.60208 306.73126L227.85208 306.73126L227.85208 307.7469L223.7427 307.7469L223.7427 310.075Q223.9927 310.04376 224.2427 310.04376Q224.50833 310.02814 224.71146 310.02814Q225.41458 310.02814 225.94583 310.15314Q226.47708 310.2625 226.9302 310.575Q227.39896 310.8875 227.64896 311.40314Q227.91458 311.90314 227.91458 312.6844Z" fill-rule="nonzero"/><path fill="#000000" d="M275.34793 312.6844Q275.34793 313.29376 275.11356 313.85626Q274.8948 314.40314 274.5198 314.77814Q274.09793 315.1844 273.50418 315.41876Q272.92606 315.6375 272.16043 315.6375Q271.44168 315.6375 270.7698 315.48126Q270.11356 315.325 269.66043 315.1219L269.66043 313.8875L269.73856 313.8875Q270.22293 314.1844 270.86356 314.40314Q271.5198 314.6219 272.12918 314.6219Q272.55106 314.6219 272.94168 314.5125Q273.3323 314.3875 273.62918 314.09064Q273.8948 313.84064 274.0198 313.4969Q274.16043 313.1375 274.16043 312.66876Q274.16043 312.21564 274.00418 311.91876Q273.84793 311.60626 273.56668 311.41876Q273.2698 311.1844 272.8323 311.10626Q272.3948 311.0125 271.84793 311.0125Q271.3323 311.0125 270.84793 311.09064Q270.37918 311.15314 270.03543 311.21564L270.03543 306.73126L275.28543 306.73126L275.28543 307.7469L271.17606 307.7469L271.17606 310.075Q271.42606 310.04376 271.67606 310.04376Q271.94168 310.02814 272.1448 310.02814Q272.84793 310.02814 273.37918 310.15314Q273.91043 310.2625 274.36356 310.575Q274.8323 310.8875 275.0823 311.40314Q275.34793 311.90314 275.34793 312.6844ZM283.41043 311.09064Q283.41043 313.4344 282.67606 314.54376Q281.94168 315.6375 280.3948 315.6375Q278.81668 315.6375 278.0823 314.52814Q277.36356 313.40314 277.36356 311.09064Q277.36356 308.7625 278.09793 307.65314Q278.8323 306.54376 280.3948 306.54376Q281.9573 306.54376 282.67606 307.6844Q283.41043 308.8094 283.41043 311.09064ZM281.86356 313.7469Q282.06668 313.2625 282.1448 312.6219Q282.22293 311.98126 282.22293 311.09064Q282.22293 310.2 282.1448 309.54376Q282.06668 308.8875 281.86356 308.41876Q281.66043 307.96564 281.30106 307.7469Q280.94168 307.5125 280.3948 307.5125Q279.8323 307.5125 279.47293 307.7469Q279.11356 307.96564 278.91043 308.4344Q278.7073 308.8719 278.62918 309.575Q278.56668 310.2625 278.56668 311.09064Q278.56668 312.0125 278.62918 312.6375Q278.69168 313.2469 278.8948 313.73126Q279.09793 314.1844 279.44168 314.4344Q279.80106 314.66876 280.3948 314.66876Q280.94168 314.66876 281.30106 314.4344Q281.66043 314.2 281.86356 313.7469Z" fill-rule="nonzero"/><path fill="#000000" d="M330.875 308.02814L326.92188 315.45L325.67188 315.45L329.875 307.7469L324.90625 307.7469L324.90625 306.73126L330.875 306.73126L330.875 308.02814ZM338.78125 312.6844Q338.78125 313.29376 338.54688 313.85626Q338.32812 314.40314 337.95312 314.77814Q337.53125 315.1844 336.9375 315.41876Q336.35938 315.6375 335.59375 315.6375Q334.875 315.6375 334.20312 315.48126Q333.54688 315.325 333.09375 315.1219L333.09375 313.8875L333.17188 313.8875Q333.65625 314.1844 334.29688 314.40314Q334.95312 314.6219 335.5625 314.6219Q335.98438 314.6219 336.375 314.5125Q336.76562 314.3875 337.0625 314.09064Q337.32812 313.84064 337.45312 313.4969Q337.59375 313.1375 337.59375 312.66876Q337.59375 312.21564 337.4375 311.91876Q337.28125 311.60626 337.0 311.41876Q336.70312 311.1844 336.26562 311.10626Q335.82812 311.0125 335.28125 311.0125Q334.76562 311.0125 334.28125 311.09064Q333.8125 311.15314 333.46875 311.21564L333.46875 306.73126L338.71875 306.73126L338.71875 307.7469L334.60938 307.7469L334.60938 310.075Q334.85938 310.04376 335.10938 310.04376Q335.375 310.02814 335.57812 310.02814Q336.28125 310.02814 336.8125 310.15314Q337.34375 310.2625 337.79688 310.575Q338.26562 310.8875 338.51562 311.40314Q338.78125 311.90314 338.78125 312.6844Z" fill-rule="nonzero"/><path fill="#000000" d="M381.7927 315.45L377.05832 315.45L377.05832 314.5594L378.88644 314.5594L378.88644 308.71564L377.05832 308.71564L377.05832 307.91876Q377.43332 307.91876 377.8552 307.85626Q378.27707 307.79376 378.49582 307.66876Q378.76144 307.52814 378.9177 307.3094Q379.07394 307.075 379.08957 306.7L380.01144 306.7L380.01144 314.5594L381.7927 314.5594L381.7927 315.45ZM390.27707 311.09064Q390.27707 313.4344 389.5427 314.54376Q388.80832 315.6375 387.26144 315.6375Q385.68332 315.6375 384.94894 314.52814Q384.2302 313.40314 384.2302 311.09064Q384.2302 308.7625 384.96457 307.65314Q385.69894 306.54376 387.26144 306.54376Q388.82394 306.54376 389.5427 307.6844Q390.27707 308.8094 390.27707 311.09064ZM388.7302 313.7469Q388.93332 313.2625 389.01144 312.6219Q389.08957 311.98126 389.08957 311.09064Q389.08957 310.2 389.01144 309.54376Q388.93332 308.8875 388.7302 308.41876Q388.52707 307.96564 388.1677 307.7469Q387.80832 307.5125 387.26144 307.5125Q386.69894 307.5125 386.33957 307.7469Q385.9802 307.96564 385.77707 308.4344Q385.57394 308.8719 385.49582 309.575Q385.43332 310.2625 385.43332 311.09064Q385.43332 312.0125 385.49582 312.6375Q385.55832 313.2469 385.76144 313.73126Q385.96457 314.1844 386.30832 314.4344Q386.6677 314.66876 387.26144 314.66876Q387.80832 314.66876 388.1677 314.4344Q388.52707 314.2 388.7302 313.7469ZM398.27707 311.09064Q398.27707 313.4344 397.5427 314.54376Q396.80832 315.6375 395.26144 315.6375Q393.68332 315.6375 392.94894 314.52814Q392.2302 313.40314 392.2302 311.09064Q392.2302 308.7625 392.96457 307.65314Q393.69894 306.54376 395.26144 306.54376Q396.82394 306.54376 397.5427 307.6844Q398.27707 308.8094 398.27707 311.09064ZM396.7302 313.7469Q396.93332 313.2625 397.01144 312.6219Q397.08957 311.98126 397.08957 311.09064Q397.08957 310.2 397.01144 309.54376Q396.93332 308.8875 396.7302 308.41876Q396.52707 307.96564 396.1677 307.7469Q395.80832 307.5125 395.26144 307.5125Q394.69894 307.5125 394.33957 307.7469Q393.9802 307.96564 393.77707 308.4344Q393.57394 308.8719 393.49582 309.575Q393.43332 310.2625 393.43332 311.09064Q393.43332 312.0125 393.49582 312.6375Q393.55832 313.2469 393.76144 313.73126Q393.96457 314.1844 394.30832 314.4344Q394.6677 314.66876 395.26144 314.66876Q395.80832 314.66876 396.1677 314.4344Q396.52707 314.2 396.7302 313.7469Z" fill-rule="nonzero"/><path fill="#000000" d="M433.22604 315.45L428.49167 315.45L428.49167 314.5594L430.3198 314.5594L430.3198 308.71564L428.49167 308.71564L428.49167 307.91876Q428.86667 307.91876 429.28854 307.85626Q429.71042 307.79376 429.92917 307.66876Q430.1948 307.52814 430.35104 307.3094Q430.5073 307.075 430.52292 306.7L431.4448 306.7L431.4448 314.5594L433.22604 314.5594L433.22604 315.45ZM441.71042 311.09064Q441.71042 313.4344 440.97604 314.54376Q440.24167 315.6375 438.6948 315.6375Q437.11667 315.6375 436.3823 314.52814Q435.66354 313.40314 435.66354 311.09064Q435.66354 308.7625 436.39792 307.65314Q437.1323 306.54376 438.6948 306.54376Q440.2573 306.54376 440.97604 307.6844Q441.71042 308.8094 441.71042 311.09064ZM440.16354 313.7469Q440.36667 313.2625 440.4448 312.6219Q440.52292 311.98126 440.52292 311.09064Q440.52292 310.2 440.4448 309.54376Q440.36667 308.8875 440.16354 308.41876Q439.96042 307.96564 439.60104 307.7469Q439.24167 307.5125 438.6948 307.5125Q438.1323 307.5125 437.77292 307.7469Q437.41354 307.96564 437.21042 308.4344Q437.0073 308.8719 436.92917 309.575Q436.86667 310.2625 436.86667 311.09064Q436.86667 312.0125 436.92917 312.6375Q436.99167 313.2469 437.1948 313.73126Q437.39792 314.1844 437.74167 314.4344Q438.10104 314.66876 438.6948 314.66876Q439.24167 314.66876 439.60104 314.4344Q439.96042 314.2 440.16354 313.7469ZM449.71042 311.09064Q449.71042 313.4344 448.97604 314.54376Q448.24167 315.6375 446.6948 315.6375Q445.11667 315.6375 444.3823 314.52814Q443.66354 313.40314 443.66354 311.09064Q443.66354 308.7625 444.39792 307.65314Q445.1323 306.54376 446.6948 306.54376Q448.2573 306.54376 448.97604 307.6844Q449.71042 308.8094 449.71042 311.09064ZM448.16354 313.7469Q448.36667 313.2625 448.4448 312.6219Q448.52292 311.98126 448.52292 311.09064Q448.52292 310.2 448.4448 309.54376Q448.36667 308.8875 448.16354 308.41876Q447.96042 307.96564 447.60104 307.7469Q447.24167 307.5125 446.6948 307.5125Q446.1323 307.5125 445.77292 307.7469Q445.41354 307.96564 445.21042 308.4344Q445.0073 308.8719 444.92917 309.575Q444.86667 310.2625 444.86667 311.09064Q444.86667 312.0125 444.92917 312.6375Q444.99167 313.2469 445.1948 313.73126Q445.39792 314.1844 445.74167 314.4344Q446.10104 314.66876 446.6948 314.66876Q447.24167 314.66876 447.60104 314.4344Q447.96042 314.2 448.16354 313.7469ZM457.71042 311.09064Q457.71042 313.4344 456.97604 314.54376Q456.24167 315.6375 454.6948 315.6375Q453.11667 315.6375 452.3823 314.52814Q451.66354 313.40314 451.66354 311.09064Q451.66354 308.7625 452.39792 307.65314Q453.1323 306.54376 454.6948 306.54376Q456.2573 306.54376 456.97604 307.6844Q457.71042 308.8094 457.71042 311.09064ZM456.16354 313.7469Q456.36667 313.2625 456.4448 312.6219Q456.52292 311.98126 456.52292 311.09064Q456.52292 310.2 456.4448 309.54376Q456.36667 308.8875 456.16354 308.41876Q455.96042 307.96564 455.60104 307.7469Q455.24167 307.5125 454.6948 307.5125Q454.1323 307.5125 453.77292 307.7469Q453.41354 307.96564 453.21042 308.4344Q453.0073 308.8719 452.92917 309.575Q452.86667 310.2625 452.86667 311.09064Q452.86667 312.0125 452.92917 312.6375Q452.99167 313.2469 453.1948 313.73126Q453.39792 314.1844 453.74167 314.4344Q454.10104 314.66876 454.6948 314.66876Q455.24167 314.66876 455.60104 314.4344Q455.96042 314.2 456.16354 313.7469Z" fill-rule="nonzero"/><path fill="#000000" d="M489.08124 312.6844Q489.08124 313.29376 488.84686 313.85626Q488.6281 314.40314 488.2531 314.77814Q487.83124 315.1844 487.2375 315.41876Q486.65936 315.6375 485.89374 315.6375Q485.175 315.6375 484.5031 315.48126Q483.84686 315.325 483.39374 315.1219L483.39374 313.8875L483.47186 313.8875Q483.95624 314.1844 484.59686 314.40314Q485.2531 314.6219 485.8625 314.6219Q486.28436 314.6219 486.675 314.5125Q487.0656 314.3875 487.3625 314.09064Q487.6281 313.84064 487.7531 313.4969Q487.89374 313.1375 487.89374 312.66876Q487.89374 312.21564 487.7375 311.91876Q487.58124 311.60626 487.3 311.41876Q487.0031 311.1844 486.5656 311.10626Q486.1281 311.0125 485.58124 311.0125Q485.0656 311.0125 484.58124 311.09064Q484.1125 311.15314 483.76874 311.21564L483.76874 306.73126L489.01874 306.73126L489.01874 307.7469L484.90936 307.7469L484.90936 310.075Q485.15936 310.04376 485.40936 310.04376Q485.675 310.02814 485.8781 310.02814Q486.58124 310.02814 487.1125 310.15314Q487.64374 310.2625 488.09686 310.575Q488.5656 310.8875 488.8156 311.40314Q489.08124 311.90314 489.08124 312.6844ZM497.14374 311.09064Q497.14374 313.4344 496.40936 314.54376Q495.675 315.6375 494.1281 315.6375Q492.55 315.6375 491.8156 314.52814Q491.09686 313.40314 491.09686 311.09064Q491.09686 308.7625 491.83124 307.65314Q492.5656 306.54376 494.1281 306.54376Q495.6906 306.54376 496.40936 307.6844Q497.14374 308.8094 497.14374 311.09064ZM495.59686 313.7469Q495.8 313.2625 495.8781 312.6219Q495.95624 311.98126 495.95624 311.09064Q495.95624 310.2 495.8781 309.54376Q495.8 308.8875 495.59686 308.41876Q495.39374 307.96564 495.03436 307.7469Q494.675 307.5125 494.1281 307.5125Q493.5656 307.5125 493.20624 307.7469Q492.84686 307.96564 492.64374 308.4344Q492.4406 308.8719 492.3625 309.575Q492.3 310.2625 492.3 311.09064Q492.3 312.0125 492.3625 312.6375Q492.425 313.2469 492.6281 313.73126Q492.83124 314.1844 493.175 314.4344Q493.53436 314.66876 494.1281 314.66876Q494.675 314.66876 495.03436 314.4344Q495.39374 314.2 495.59686 313.7469ZM505.14374 311.09064Q505.14374 313.4344 504.40936 314.54376Q503.675 315.6375 502.1281 315.6375Q500.55 315.6375 499.8156 314.52814Q499.09686 313.40314 499.09686 311.09064Q499.09686 308.7625 499.83124 307.65314Q500.5656 306.54376 502.1281 306.54376Q503.6906 306.54376 504.40936 307.6844Q505.14374 308.8094 505.14374 311.09064ZM503.59686 313.7469Q503.8 313.2625 503.8781 312.6219Q503.95624 311.98126 503.95624 311.09064Q503.95624 310.2 503.8781 309.54376Q503.8 308.8875 503.59686 308.41876Q503.39374 307.96564 503.03436 307.7469Q502.675 307.5125 502.1281 307.5125Q501.5656 307.5125 501.20624 307.7469Q500.84686 307.96564 500.64374 308.4344Q500.4406 308.8719 500.3625 309.575Q500.3 310.2625 500.3 311.09064Q500.3 312.0125 500.3625 312.6375Q500.425 313.2469 500.6281 313.73126Q500.83124 314.1844 501.175 314.4344Q501.53436 314.66876 502.1281 314.66876Q502.675 314.66876 503.03436 314.4344Q503.39374 314.2 503.59686 313.7469ZM513.14374 311.09064Q513.14374 313.4344 512.40936 314.54376Q511.675 315.6375 510.1281 315.6375Q508.55 315.6375 507.8156 314.52814Q507.09686 313.40314 507.09686 311.09064Q507.09686 308.7625 507.83124 307.65314Q508.5656 306.54376 510.1281 306.54376Q511.6906 306.54376 512.40936 307.6844Q513.14374 308.8094 513.14374 311.09064ZM511.59686 313.7469Q511.8 313.2625 511.8781 312.6219Q511.95624 311.98126 511.95624 311.09064Q511.95624 310.2 511.8781 309.54376Q511.8 308.8875 511.59686 308.41876Q511.39374 307.96564 511.03436 307.7469Q510.675 307.5125 510.1281 307.5125Q509.5656 307.5125 509.20624 307.7469Q508.84686 307.96564 508.64374 308.4344Q508.4406 308.8719 508.3625 309.575Q508.3 310.2625 508.3 311.09064Q508.3 312.0125 508.3625 312.6375Q508.425 313.2469 508.6281 313.73126Q508.83124 314.1844 509.175 314.4344Q509.53436 314.66876 510.1281 314.66876Q510.675 314.66876 511.03436 314.4344Q511.39374 314.2 511.59686 313.7469Z" fill-rule="nonzero"/><path fill="#000000" d="M540.0927 315.45L535.35834 315.45L535.35834 314.5594L537.18646 314.5594L537.18646 308.71564L535.35834 308.71564L535.35834 307.91876Q535.73334 307.91876 536.1552 307.85626Q536.5771 307.79376 536.79584 307.66876Q537.06146 307.52814 537.2177 307.3094Q537.37396 307.075 537.3896 306.7L538.31146 306.7L538.31146 314.5594L540.0927 314.5594L540.0927 315.45ZM548.5771 311.09064Q548.5771 313.4344 547.8427 314.54376Q547.10834 315.6375 545.56146 315.6375Q543.98334 315.6375 543.24896 314.52814Q542.5302 313.40314 542.5302 311.09064Q542.5302 308.7625 543.2646 307.65314Q543.99896 306.54376 545.56146 306.54376Q547.12396 306.54376 547.8427 307.6844Q548.5771 308.8094 548.5771 311.09064ZM547.0302 313.7469Q547.23334 313.2625 547.31146 312.6219Q547.3896 311.98126 547.3896 311.09064Q547.3896 310.2 547.31146 309.54376Q547.23334 308.8875 547.0302 308.41876Q546.8271 307.96564 546.4677 307.7469Q546.10834 307.5125 545.56146 307.5125Q544.99896 307.5125 544.6396 307.7469Q544.2802 307.96564 544.0771 308.4344Q543.87396 308.8719 543.79584 309.575Q543.73334 310.2625 543.73334 311.09064Q543.73334 312.0125 543.79584 312.6375Q543.85834 313.2469 544.06146 313.73126Q544.2646 314.1844 544.60834 314.4344Q544.9677 314.66876 545.56146 314.66876Q546.10834 314.66876 546.4677 314.4344Q546.8271 314.2 547.0302 313.7469ZM556.5771 311.09064Q556.5771 313.4344 555.8427 314.54376Q555.10834 315.6375 553.56146 315.6375Q551.98334 315.6375 551.24896 314.52814Q550.5302 313.40314 550.5302 311.09064Q550.5302 308.7625 551.2646 307.65314Q551.99896 306.54376 553.56146 306.54376Q555.12396 306.54376 555.8427 307.6844Q556.5771 308.8094 556.5771 311.09064ZM555.0302 313.7469Q555.23334 313.2625 555.31146 312.6219Q555.3896 311.98126 555.3896 311.09064Q555.3896 310.2 555.31146 309.54376Q555.23334 308.8875 555.0302 308.41876Q554.8271 307.96564 554.4677 307.7469Q554.10834 307.5125 553.56146 307.5125Q552.99896 307.5125 552.6396 307.7469Q552.2802 307.96564 552.0771 308.4344Q551.87396 308.8719 551.79584 309.575Q551.73334 310.2625 551.73334 311.09064Q551.73334 312.0125 551.79584 312.6375Q551.85834 313.2469 552.06146 313.73126Q552.2646 314.1844 552.60834 314.4344Q552.9677 314.66876 553.56146 314.66876Q554.10834 314.66876 554.4677 314.4344Q554.8271 314.2 555.0302 313.7469ZM564.5771 311.09064Q564.5771 313.4344 563.8427 314.54376Q563.10834 315.6375 561.56146 315.6375Q559.98334 315.6375 559.24896 314.52814Q558.5302 313.40314 558.5302 311.09064Q558.5302 308.7625 559.2646 307.65314Q559.99896 306.54376 561.56146 306.54376Q563.12396 306.54376 563.8427 307.6844Q564.5771 308.8094 564.5771 311.09064ZM563.0302 313.7469Q563.23334 313.2625 563.31146 312.6219Q563.3896 311.98126 563.3896 311.09064Q563.3896 310.2 563.31146 309.54376Q563.23334 308.8875 563.0302 308.41876Q562.8271 307.96564 562.4677 307.7469Q562.10834 307.5125 561.56146 307.5125Q560.99896 307.5125 560.6396 307.7469Q560.2802 307.96564 560.0771 308.4344Q559.87396 308.8719 559.79584 309.575Q559.73334 310.2625 559.73334 311.09064Q559.73334 312.0125 559.79584 312.6375Q559.85834 313.2469 560.06146 313.73126Q560.2646 314.1844 560.60834 314.4344Q560.9677 314.66876 561.56146 314.66876Q562.10834 314.66876 562.4677 314.4344Q562.8271 314.2 563.0302 313.7469ZM572.5771 311.09064Q572.5771 313.4344 571.8427 314.54376Q571.10834 315.6375 569.56146 315.6375Q567.98334 315.6375 567.24896 314.52814Q566.5302 313.40314 566.5302 311.09064Q566.5302 308.7625 567.2646 307.65314Q567.99896 306.54376 569.56146 306.54376Q571.12396 306.54376 571.8427 307.6844Q572.5771 308.8094 572.5771 311.09064ZM571.0302 313.7469Q571.23334 313.2625 571.31146 312.6219Q571.3896 311.98126 571.3896 311.09064Q571.3896 310.2 571.31146 309.54376Q571.23334 308.8875 571.0302 308.41876Q570.8271 307.96564 570.4677 307.7469Q570.10834 307.5125 569.56146 307.5125Q568.99896 307.5125 568.6396 307.7469Q568.2802 307.96564 568.0771 308.4344Q567.87396 308.8719 567.79584 309.575Q567.73334 310.2625 567.73334 311.09064Q567.73334 312.0125 567.79584 312.6375Q567.85834 313.2469 568.06146 313.73126Q568.2646 314.1844 568.60834 314.4344Q568.9677 314.66876 569.56146 314.66876Q570.10834 314.66876 570.4677 314.4344Q570.8271 314.2 571.0302 313.7469Z" fill-rule="nonzero"/><path stroke="#4285f4" stroke-width="4.0" stroke-linecap="butt" d="M113.0 26.55L125.0 26.55" fill-rule="nonzero"/><path fill="#1a1a1a" d="M140.90625 30.909374Q140.59375 31.05 140.32812 31.175Q140.0625 31.3 139.64062 31.440624Q139.28125 31.55 138.85938 31.628124Q138.45312 31.70625 137.95312 31.70625Q137.0 31.70625 136.21875 31.440624Q135.4375 31.175 134.875 30.6125Q134.3125 30.05 133.98438 29.190624Q133.67188 28.33125 133.67188 27.190624Q133.67188 26.1125 133.96875 25.26875Q134.28125 24.425 134.85938 23.83125Q135.42188 23.26875 136.20312 22.971874Q136.98438 22.659374 137.95312 22.659374Q138.65625 22.659374 139.35938 22.83125Q140.0625 23.003124 140.90625 23.440624L140.90625 24.815624L140.82812 24.815624Q140.10938 24.20625 139.39062 23.940624Q138.6875 23.659374 137.875 23.659374Q137.21875 23.659374 136.6875 23.878124Q136.15625 24.08125 135.73438 24.534374Q135.32812 24.971874 135.09375 25.64375Q134.875 26.315624 134.875 27.190624Q134.875 28.1125 135.125 28.784374Q135.375 29.440624 135.76562 29.8625Q136.1875 30.284374 136.73438 30.503124Q137.28125 30.70625 137.89062 30.70625Q138.71875 30.70625 139.45312 30.425Q140.1875 30.128124 140.82812 29.55L140.90625 29.55L140.90625 30.909374ZM148.65625 28.284374Q148.65625 29.878124 147.82812 30.815624Q147.01562 31.7375 145.64062 31.7375Q144.25 31.7375 143.4375 30.815624Q142.625 29.878124 142.625 28.284374Q142.625 26.675 143.4375 25.753124Q144.25 24.815624 145.64062 24.815624Q147.01562 24.815624 147.82812 25.753124Q148.65625 26.675 148.65625 28.284374ZM147.53125 28.284374Q147.53125 27.003124 147.03125 26.39375Q146.53125 25.76875 145.64062 25.76875Q144.75 25.76875 144.25 26.39375Q143.76562 27.003124 143.76562 28.284374Q143.76562 29.503124 144.25 30.14375Q144.75 30.784374 145.64062 30.784374Q146.53125 30.784374 147.03125 30.159374Q147.53125 29.51875 147.53125 28.284374ZM156.5625 31.55L155.45312 31.55L155.45312 27.815624Q155.45312 27.378124 155.39062 26.9875Q155.34375 26.58125 155.20312 26.3625Q155.0625 26.1125 154.78125 26.003124Q154.51562 25.878124 154.07812 25.878124Q153.625 25.878124 153.125 26.096874Q152.64062 26.315624 152.1875 26.659374L152.1875 31.55L151.07812 31.55L151.07812 25.003124L152.1875 25.003124L152.1875 25.7375Q152.70312 25.3 153.25 25.065624Q153.79688 24.815624 154.39062 24.815624Q155.4375 24.815624 156.0 25.45625Q156.5625 26.096874 156.5625 27.3L156.5625 31.55ZM163.76562 29.659374Q163.76562 30.565624 163.01562 31.14375Q162.28125 31.70625 161.0 31.70625Q160.26562 31.70625 159.65625 31.534374Q159.0625 31.3625 158.64062 31.159374L158.64062 29.925L158.70312 29.925Q159.21875 30.315624 159.85938 30.55Q160.5 30.76875 161.09375 30.76875Q161.8125 30.76875 162.21875 30.534374Q162.64062 30.3 162.64062 29.8Q162.64062 29.409374 162.40625 29.221874Q162.1875 29.01875 161.5625 28.878124Q161.32812 28.83125 160.9375 28.76875Q160.5625 28.690624 160.25 28.596874Q159.39062 28.378124 159.03125 27.940624Q158.67188 27.4875 158.67188 26.846874Q158.67188 26.440624 158.84375 26.08125Q159.01562 25.721874 159.34375 25.440624Q159.67188 25.175 160.17188 25.01875Q160.6875 24.846874 161.3125 24.846874Q161.90625 24.846874 162.5 24.9875Q163.10938 25.128124 163.5 25.33125L163.5 26.51875L163.4375 26.51875Q163.01562 26.20625 162.40625 26.003124Q161.8125 25.784374 161.23438 25.784374Q160.625 25.784374 160.20312 26.01875Q159.79688 26.2375 159.79688 26.690624Q159.79688 27.096874 160.04688 27.3Q160.29688 27.51875 160.84375 27.64375Q161.15625 27.70625 161.53125 27.784374Q161.90625 27.846874 162.15625 27.909374Q162.92188 28.08125 163.34375 28.51875Q163.76562 28.940624 163.76562 29.659374ZM169.48438 31.4875Q169.17188 31.58125 168.79688 31.628124Q168.4375 31.675 168.15625 31.675Q167.15625 31.675 166.625 31.14375Q166.10938 30.596874 166.10938 29.409374L166.10938 25.925L165.35938 25.925L165.35938 25.003124L166.10938 25.003124L166.10938 23.128124L167.20312 23.128124L167.20312 25.003124L169.48438 25.003124L169.48438 25.925L167.20312 25.925L167.20312 28.909374Q167.20312 29.425 167.21875 29.721874Q167.25 30.003124 167.39062 30.253124Q167.53125 30.4875 167.75 30.596874Q167.98438 30.70625 168.4375 30.70625Q168.70312 30.70625 169.0 30.628124Q169.29688 30.55 169.42188 30.503124L169.48438 30.503124L169.48438 31.4875ZM176.17188 31.55L175.07812 31.55L175.07812 30.846874Q174.92188 30.95625 174.67188 31.14375Q174.4375 31.315624 174.20312 31.409374Q173.92188 31.55 173.5625 31.64375Q173.20312 31.7375 172.71875 31.7375Q171.84375 31.7375 171.21875 31.159374Q170.60938 30.565624 170.60938 29.64375Q170.60938 28.909374 170.92188 28.45625Q171.25 27.9875 171.84375 27.721874Q172.4375 27.45625 173.26562 27.3625Q174.10938 27.26875 175.07812 27.221874L175.07812 27.05Q175.07812 26.675 174.9375 26.440624Q174.8125 26.190624 174.5625 26.05Q174.32812 25.909374 174.0 25.8625Q173.67188 25.815624 173.3125 25.815624Q172.89062 25.815624 172.34375 25.940624Q171.8125 26.05 171.25 26.26875L171.1875 26.26875L171.1875 25.14375Q171.51562 25.05 172.125 24.95625Q172.73438 24.846874 173.32812 24.846874Q174.01562 24.846874 174.53125 24.971874Q175.04688 25.08125 175.42188 25.346874Q175.78125 25.6125 175.96875 26.05Q176.17188 26.471874 176.17188 27.1125L176.17188 31.55ZM175.07812 29.940624L175.07812 28.1125Q174.57812 28.14375 173.89062 28.20625Q173.20312 28.26875 172.8125 28.378124Q172.32812 28.503124 172.03125 28.8Q171.75 29.08125 171.75 29.58125Q171.75 30.14375 172.07812 30.425Q172.42188 30.70625 173.125 30.70625Q173.70312 30.70625 174.1875 30.4875Q174.67188 30.253124 175.07812 29.940624ZM184.5625 31.55L183.45312 31.55L183.45312 27.815624Q183.45312 27.378124 183.39062 26.9875Q183.34375 26.58125 183.20312 26.3625Q183.0625 26.1125 182.78125 26.003124Q182.51562 25.878124 182.07812 25.878124Q181.625 25.878124 181.125 26.096874Q180.64062 26.315624 180.1875 26.659374L180.1875 31.55L179.07812 31.55L179.07812 25.003124L180.1875 25.003124L180.1875 25.7375Q180.70312 25.3 181.25 25.065624Q181.79688 24.815624 182.39062 24.815624Q183.4375 24.815624 184.0 25.45625Q184.5625 26.096874 184.5625 27.3L184.5625 31.55ZM190.48438 31.4875Q190.17188 31.58125 189.79688 31.628124Q189.4375 31.675 189.15625 31.675Q188.15625 31.675 187.625 31.14375Q187.10938 30.596874 187.10938 29.409374L187.10938 25.925L186.35938 25.925L186.35938 25.003124L187.10938 25.003124L187.10938 23.128124L188.20312 23.128124L188.20312 25.003124L190.48438 25.003124L190.48438 25.925L188.20312 25.925L188.20312 28.909374Q188.20312 29.425 188.21875 29.721874Q188.25 30.003124 188.39062 30.253124Q188.53125 30.4875 188.75 30.596874Q188.98438 30.70625 189.4375 30.70625Q189.70312 30.70625 190.0 30.628124Q190.29688 30.55 190.42188 30.503124L190.48438 30.503124L190.48438 31.4875Z" fill-rule="nonzero"/><path stroke="#ea4335" stroke-width="4.0" stroke-linecap="butt" d="M207.0 26.55L219.0 26.55" fill-rule="nonzero"/><path fill="#1a1a1a" d="M234.51562 29.065624Q234.51562 29.565624 234.26562 30.065624Q234.03125 30.565624 233.60938 30.909374Q233.14062 31.284374 232.51562 31.503124Q231.89062 31.70625 231.01562 31.70625Q230.07812 31.70625 229.3125 31.534374Q228.5625 31.3625 227.78125 31.003124L227.78125 29.55L227.875 29.55Q228.53125 30.1125 229.39062 30.409374Q230.26562 30.70625 231.03125 30.70625Q232.10938 30.70625 232.70312 30.3Q233.3125 29.89375 233.3125 29.221874Q233.3125 28.64375 233.01562 28.378124Q232.73438 28.096874 232.15625 27.940624Q231.71875 27.815624 231.20312 27.753124Q230.6875 27.675 230.125 27.55Q228.95312 27.3 228.39062 26.70625Q227.84375 26.1125 227.84375 25.159374Q227.84375 24.065624 228.76562 23.3625Q229.6875 22.659374 231.10938 22.659374Q232.03125 22.659374 232.79688 22.846874Q233.5625 23.01875 234.15625 23.26875L234.15625 24.64375L234.07812 24.64375Q233.57812 24.221874 232.76562 23.95625Q231.95312 23.675 231.10938 23.675Q230.17188 23.675 229.60938 24.065624Q229.04688 24.440624 229.04688 25.05Q229.04688 25.596874 229.32812 25.909374Q229.60938 26.221874 230.3125 26.378124Q230.6875 26.45625 231.375 26.58125Q232.07812 26.690624 232.5625 26.815624Q233.53125 27.08125 234.01562 27.6125Q234.51562 28.128124 234.51562 29.065624ZM241.5625 28.39375L236.73438 28.39375Q236.73438 28.9875 236.92188 29.440624Q237.10938 29.89375 237.42188 30.175Q237.71875 30.45625 238.14062 30.596874Q238.5625 30.7375 239.0625 30.7375Q239.73438 30.7375 240.40625 30.471874Q241.09375 30.20625 241.375 29.95625L241.4375 29.95625L241.4375 31.14375Q240.875 31.378124 240.29688 31.55Q239.71875 31.70625 239.07812 31.70625Q237.45312 31.70625 236.53125 30.83125Q235.625 29.940624 235.625 28.315624Q235.625 26.70625 236.5 25.76875Q237.375 24.815624 238.79688 24.815624Q240.125 24.815624 240.84375 25.596874Q241.5625 26.3625 241.5625 27.8L241.5625 28.39375ZM240.48438 27.55Q240.48438 26.675 240.04688 26.20625Q239.625 25.7375 238.75 25.7375Q237.85938 25.7375 237.32812 26.253124Q236.8125 26.76875 236.73438 27.55L240.48438 27.55ZM253.64062 31.55L252.53125 31.55L252.53125 27.815624Q252.53125 27.39375 252.48438 27.003124Q252.45312 26.6125 252.32812 26.378124Q252.20312 26.128124 251.95312 26.003124Q251.70312 25.878124 251.21875 25.878124Q250.76562 25.878124 250.29688 26.1125Q249.82812 26.33125 249.375 26.690624Q249.39062 26.83125 249.39062 27.01875Q249.40625 27.190624 249.40625 27.3625L249.40625 31.55L248.3125 31.55L248.3125 27.815624Q248.3125 27.39375 248.26562 27.003124Q248.23438 26.6125 248.10938 26.378124Q247.96875 26.128124 247.71875 26.003124Q247.46875 25.878124 247.0 25.878124Q246.54688 25.878124 246.09375 26.096874Q245.64062 26.315624 245.1875 26.659374L245.1875 31.55L244.07812 31.55L244.07812 25.003124L245.1875 25.003124L245.1875 25.7375Q245.70312 25.3 246.21875 25.065624Q246.73438 24.815624 247.3125 24.815624Q247.96875 24.815624 248.4375 25.096874Q248.90625 25.378124 249.14062 25.878124Q249.79688 25.315624 250.34375 25.065624Q250.90625 24.815624 251.53125 24.815624Q252.60938 24.815624 253.125 25.471874Q253.64062 26.128124 253.64062 27.3L253.64062 31.55ZM260.17188 31.55L259.07812 31.55L259.07812 30.846874Q258.92188 30.95625 258.67188 31.14375Q258.4375 31.315624 258.20312 31.409374Q257.92188 31.55 257.5625 31.64375Q257.20312 31.7375 256.71875 31.7375Q255.84375 31.7375 255.21875 31.159374Q254.60938 30.565624 254.60938 29.64375Q254.60938 28.909374 254.92188 28.45625Q255.25 27.9875 255.84375 27.721874Q256.4375 27.45625 257.26562 27.3625Q258.10938 27.26875 259.07812 27.221874L259.07812 27.05Q259.07812 26.675 258.9375 26.440624Q258.8125 26.190624 258.5625 26.05Q258.32812 25.909374 258.0 25.8625Q257.67188 25.815624 257.3125 25.815624Q256.89062 25.815624 256.34375 25.940624Q255.8125 26.05 255.25 26.26875L255.1875 26.26875L255.1875 25.14375Q255.51562 25.05 256.125 24.95625Q256.73438 24.846874 257.32812 24.846874Q258.01562 24.846874 258.53125 24.971874Q259.04688 25.08125 259.42188 25.346874Q259.78125 25.6125 259.96875 26.05Q260.17188 26.471874 260.17188 27.1125L260.17188 31.55ZM259.07812 29.940624L259.07812 28.1125Q258.57812 28.14375 257.89062 28.20625Q257.20312 28.26875 256.8125 28.378124Q256.32812 28.503124 256.03125 28.8Q255.75 29.08125 255.75 29.58125Q255.75 30.14375 256.07812 30.425Q256.42188 30.70625 257.125 30.70625Q257.70312 30.70625 258.1875 30.4875Q258.67188 30.253124 259.07812 29.940624ZM268.84375 28.190624Q268.84375 28.9875 268.60938 29.659374Q268.39062 30.315624 267.96875 30.76875Q267.57812 31.20625 267.04688 31.440624Q266.53125 31.675 265.95312 31.675Q265.4375 31.675 265.01562 31.565624Q264.60938 31.45625 264.1875 31.221874L264.1875 33.971874L263.07812 33.971874L263.07812 25.003124L264.1875 25.003124L264.1875 25.690624Q264.625 25.315624 265.17188 25.065624Q265.71875 24.815624 266.34375 24.815624Q267.53125 24.815624 268.1875 25.721874Q268.84375 26.6125 268.84375 28.190624ZM267.70312 28.221874Q267.70312 27.05 267.29688 26.471874Q266.90625 25.878124 266.0625 25.878124Q265.59375 25.878124 265.10938 26.08125Q264.625 26.284374 264.1875 26.6125L264.1875 30.33125Q264.65625 30.534374 264.98438 30.6125Q265.32812 30.690624 265.75 30.690624Q266.67188 30.690624 267.1875 30.065624Q267.70312 29.440624 267.70312 28.221874ZM276.5625 31.55L275.45312 31.55L275.45312 27.815624Q275.45312 27.378124 275.39062 26.9875Q275.34375 26.58125 275.20312 26.3625Q275.0625 26.1125 274.78125 26.003124Q274.51562 25.878124 274.07812 25.878124Q273.625 25.878124 273.125 26.096874Q272.64062 26.315624 272.1875 26.659374L272.1875 31.55L271.07812 31.55L271.07812 22.425L272.1875 22.425L272.1875 25.7375Q272.70312 25.3 273.25 25.065624Q273.79688 24.815624 274.39062 24.815624Q275.4375 24.815624 276.0 25.45625Q276.5625 26.096874 276.5625 27.3L276.5625 31.55ZM284.65625 28.284374Q284.65625 29.878124 283.82812 30.815624Q283.01562 31.7375 281.64062 31.7375Q280.25 31.7375 279.4375 30.815624Q278.625 29.878124 278.625 28.284374Q278.625 26.675 279.4375 25.753124Q280.25 24.815624 281.64062 24.815624Q283.01562 24.815624 283.82812 25.753124Q284.65625 26.675 284.65625 28.284374ZM283.53125 28.284374Q283.53125 27.003124 283.03125 26.39375Q282.53125 25.76875 281.64062 25.76875Q280.75 25.76875 280.25 26.39375Q279.76562 27.003124 279.76562 28.284374Q279.76562 29.503124 280.25 30.14375Q280.75 30.784374 281.64062 30.784374Q282.53125 30.784374 283.03125 30.159374Q283.53125 29.51875 283.53125 28.284374ZM291.17188 26.20625L291.10938 26.20625Q290.85938 26.14375 290.625 26.128124Q290.40625 26.096874 290.07812 26.096874Q289.57812 26.096874 289.09375 26.33125Q288.625 26.55 288.1875 26.909374L288.1875 31.55L287.07812 31.55L287.07812 25.003124L288.1875 25.003124L288.1875 25.971874Q288.84375 25.440624 289.34375 25.221874Q289.84375 25.003124 290.35938 25.003124Q290.65625 25.003124 290.78125 25.01875Q290.90625 25.034374 291.17188 25.08125L291.17188 26.20625ZM297.5625 28.39375L292.73438 28.39375Q292.73438 28.9875 292.92188 29.440624Q293.10938 29.89375 293.42188 30.175Q293.71875 30.45625 294.14062 30.596874Q294.5625 30.7375 295.0625 30.7375Q295.73438 30.7375 296.40625 30.471874Q297.09375 30.20625 297.375 29.95625L297.4375 29.95625L297.4375 31.14375Q296.875 31.378124 296.29688 31.55Q295.71875 31.70625 295.07812 31.70625Q293.45312 31.70625 292.53125 30.83125Q291.625 29.940624 291.625 28.315624Q291.625 26.70625 292.5 25.76875Q293.375 24.815624 294.79688 24.815624Q296.125 24.815624 296.84375 25.596874Q297.5625 26.3625 297.5625 27.8L297.5625 28.39375ZM296.48438 27.55Q296.48438 26.675 296.04688 26.20625Q295.625 25.7375 294.75 25.7375Q293.85938 25.7375 293.32812 26.253124Q292.8125 26.76875 292.73438 27.55L296.48438 27.55Z" fill-rule="nonzero"/><path stroke="#fbbc04" stroke-width="4.0" stroke-linecap="butt" d="M315.0 26.55L327.0 26.55" fill-rule="nonzero"/><path fill="#1a1a1a" d="M342.90625 30.909374Q342.59375 31.05 342.32812 31.175Q342.0625 31.3 341.64062 31.440624Q341.28125 31.55 340.85938 31.628124Q340.45312 31.70625 339.95312 31.70625Q339.0 31.70625 338.21875 31.440624Q337.4375 31.175 336.875 30.6125Q336.3125 30.05 335.98438 29.190624Q335.67188 28.33125 335.67188 27.190624Q335.67188 26.1125 335.96875 25.26875Q336.28125 24.425 336.85938 23.83125Q337.42188 23.26875 338.20312 22.971874Q338.98438 22.659374 339.95312 22.659374Q340.65625 22.659374 341.35938 22.83125Q342.0625 23.003124 342.90625 23.440624L342.90625 24.815624L342.82812 24.815624Q342.10938 24.20625 341.39062 23.940624Q340.6875 23.659374 339.875 23.659374Q339.21875 23.659374 338.6875 23.878124Q338.15625 24.08125 337.73438 24.534374Q337.32812 24.971874 337.09375 25.64375Q336.875 26.315624 336.875 27.190624Q336.875 28.1125 337.125 28.784374Q337.375 29.440624 337.76562 29.8625Q338.1875 30.284374 338.73438 30.503124Q339.28125 30.70625 339.89062 30.70625Q340.71875 30.70625 341.45312 30.425Q342.1875 30.128124 342.82812 29.55L342.90625 29.55L342.90625 30.909374ZM350.65625 28.284374Q350.65625 29.878124 349.82812 30.815624Q349.01562 31.7375 347.64062 31.7375Q346.25 31.7375 345.4375 30.815624Q344.625 29.878124 344.625 28.284374Q344.625 26.675 345.4375 25.753124Q346.25 24.815624 347.64062 24.815624Q349.01562 24.815624 349.82812 25.753124Q350.65625 26.675 350.65625 28.284374ZM349.53125 28.284374Q349.53125 27.003124 349.03125 26.39375Q348.53125 25.76875 347.64062 25.76875Q346.75 25.76875 346.25 26.39375Q345.76562 27.003124 345.76562 28.284374Q345.76562 29.503124 346.25 30.14375Q346.75 30.784374 347.64062 30.784374Q348.53125 30.784374 349.03125 30.159374Q349.53125 29.51875 349.53125 28.284374ZM358.5625 31.55L357.45312 31.55L357.45312 27.815624Q357.45312 27.378124 357.39062 26.9875Q357.34375 26.58125 357.20312 26.3625Q357.0625 26.1125 356.78125 26.003124Q356.51562 25.878124 356.07812 25.878124Q355.625 25.878124 355.125 26.096874Q354.64062 26.315624 354.1875 26.659374L354.1875 31.55L353.07812 31.55L353.07812 25.003124L354.1875 25.003124L354.1875 25.7375Q354.70312 25.3 355.25 25.065624Q355.79688 24.815624 356.39062 24.815624Q357.4375 24.815624 358.0 25.45625Q358.5625 26.096874 358.5625 27.3L358.5625 31.55ZM366.39062 31.55L365.29688 31.55L365.29688 30.8625Q364.8125 31.26875 364.29688 31.503124Q363.78125 31.7375 363.1875 31.7375Q362.01562 31.7375 361.32812 30.83125Q360.64062 29.925 360.64062 28.33125Q360.64062 27.4875 360.875 26.846874Q361.10938 26.190624 361.51562 25.7375Q361.90625 25.284374 362.4375 25.05Q362.96875 24.815624 363.54688 24.815624Q364.0625 24.815624 364.45312 24.925Q364.85938 25.034374 365.29688 25.26875L365.29688 22.425L366.39062 22.425L366.39062 31.55ZM365.29688 29.940624L365.29688 26.175Q364.84375 25.9875 364.48438 25.909374Q364.14062 25.83125 363.73438 25.83125Q362.79688 25.83125 362.28125 26.471874Q361.76562 27.1125 361.76562 28.3Q361.76562 29.471874 362.15625 30.08125Q362.5625 30.675 363.45312 30.675Q363.92188 30.675 364.39062 30.471874Q364.875 30.26875 365.29688 29.940624ZM379.51562 29.065624Q379.51562 29.565624 379.26562 30.065624Q379.03125 30.565624 378.60938 30.909374Q378.14062 31.284374 377.51562 31.503124Q376.89062 31.70625 376.01562 31.70625Q375.07812 31.70625 374.3125 31.534374Q373.5625 31.3625 372.78125 31.003124L372.78125 29.55L372.875 29.55Q373.53125 30.1125 374.39062 30.409374Q375.26562 30.70625 376.03125 30.70625Q377.10938 30.70625 377.70312 30.3Q378.3125 29.89375 378.3125 29.221874Q378.3125 28.64375 378.01562 28.378124Q377.73438 28.096874 377.15625 27.940624Q376.71875 27.815624 376.20312 27.753124Q375.6875 27.675 375.125 27.55Q373.95312 27.3 373.39062 26.70625Q372.84375 26.1125 372.84375 25.159374Q372.84375 24.065624 373.76562 23.3625Q374.6875 22.659374 376.10938 22.659374Q377.03125 22.659374 377.79688 22.846874Q378.5625 23.01875 379.15625 23.26875L379.15625 24.64375L379.07812 24.64375Q378.57812 24.221874 377.76562 23.95625Q376.95312 23.675 376.10938 23.675Q375.17188 23.675 374.60938 24.065624Q374.04688 24.440624 374.04688 25.05Q374.04688 25.596874 374.32812 25.909374Q374.60938 26.221874 375.3125 26.378124Q375.6875 26.45625 376.375 26.58125Q377.07812 26.690624 377.5625 26.815624Q378.53125 27.08125 379.01562 27.6125Q379.51562 28.128124 379.51562 29.065624ZM386.17188 31.55L385.07812 31.55L385.07812 30.846874Q384.92188 30.95625 384.67188 31.14375Q384.4375 31.315624 384.20312 31.409374Q383.92188 31.55 383.5625 31.64375Q383.20312 31.7375 382.71875 31.7375Q381.84375 31.7375 381.21875 31.159374Q380.60938 30.565624 380.60938 29.64375Q380.60938 28.909374 380.92188 28.45625Q381.25 27.9875 381.84375 27.721874Q382.4375 27.45625 383.26562 27.3625Q384.10938 27.26875 385.07812 27.221874L385.07812 27.05Q385.07812 26.675 384.9375 26.440624Q384.8125 26.190624 384.5625 26.05Q384.32812 25.909374 384.0 25.8625Q383.67188 25.815624 383.3125 25.815624Q382.89062 25.815624 382.34375 25.940624Q381.8125 26.05 381.25 26.26875L381.1875 26.26875L381.1875 25.14375Q381.51562 25.05 382.125 24.95625Q382.73438 24.846874 383.32812 24.846874Q384.01562 24.846874 384.53125 24.971874Q385.04688 25.08125 385.42188 25.346874Q385.78125 25.6125 385.96875 26.05Q386.17188 26.471874 386.17188 27.1125L386.17188 31.55ZM385.07812 29.940624L385.07812 28.1125Q384.57812 28.14375 383.89062 28.20625Q383.20312 28.26875 382.8125 28.378124Q382.32812 28.503124 382.03125 28.8Q381.75 29.08125 381.75 29.58125Q381.75 30.14375 382.07812 30.425Q382.42188 30.70625 383.125 30.70625Q383.70312 30.70625 384.1875 30.4875Q384.67188 30.253124 385.07812 29.940624ZM392.60938 23.503124L392.54688 23.503124Q392.35938 23.440624 392.0625 23.39375Q391.78125 23.33125 391.5625 23.33125Q390.84375 23.33125 390.51562 23.64375Q390.20312 23.95625 390.20312 24.784374L390.20312 25.003124L392.20312 25.003124L392.20312 25.925L390.25 25.925L390.25 31.55L389.14062 31.55L389.14062 25.925L388.40625 25.925L388.40625 25.003124L389.14062 25.003124L389.14062 24.784374Q389.14062 23.628124 389.71875 23.003124Q390.29688 22.378124 391.40625 22.378124Q391.76562 22.378124 392.0625 22.409374Q392.35938 22.440624 392.60938 22.4875L392.60938 23.503124ZM398.5625 28.39375L393.73438 28.39375Q393.73438 28.9875 393.92188 29.440624Q394.10938 29.89375 394.42188 30.175Q394.71875 30.45625 395.14062 30.596874Q395.5625 30.7375 396.0625 30.7375Q396.73438 30.7375 397.40625 30.471874Q398.09375 30.20625 398.375 29.95625L398.4375 29.95625L398.4375 31.14375Q397.875 31.378124 397.29688 31.55Q396.71875 31.70625 396.07812 31.70625Q394.45312 31.70625 393.53125 30.83125Q392.625 29.940624 392.625 28.315624Q392.625 26.70625 393.5 25.76875Q394.375 24.815624 395.79688 24.815624Q397.125 24.815624 397.84375 25.596874Q398.5625 26.3625 398.5625 27.8L398.5625 28.39375ZM397.48438 27.55Q397.48438 26.675 397.04688 26.20625Q396.625 25.7375 395.75 25.7375Q394.85938 25.7375 394.32812 26.253124Q393.8125 26.76875 393.73438 27.55L397.48438 27.55Z" fill-rule="nonzero"/><path stroke="#34a853" stroke-width="4.0" stroke-linecap="butt" d="M416.0 26.55L428.0 26.55" fill-rule="nonzero"/><path fill="#1a1a1a" d="M444.39062 31.55L442.89062 31.55L439.96875 28.08125L438.32812 28.08125L438.32812 31.55L437.17188 31.55L437.17188 22.83125L439.60938 22.83125Q440.40625 22.83125 440.9375 22.940624Q441.46875 23.034374 441.89062 23.3Q442.35938 23.596874 442.625 24.05Q442.89062 24.503124 442.89062 25.190624Q442.89062 26.14375 442.40625 26.784374Q441.9375 27.409374 441.10938 27.7375L444.39062 31.55ZM441.67188 25.284374Q441.67188 24.909374 441.54688 24.628124Q441.42188 24.33125 441.10938 24.128124Q440.85938 23.95625 440.51562 23.89375Q440.17188 23.815624 439.70312 23.815624L438.32812 23.815624L438.32812 27.1125L439.5 27.1125Q440.0625 27.1125 440.46875 27.01875Q440.875 26.925 441.15625 26.659374Q441.42188 26.409374 441.54688 26.096874Q441.67188 25.76875 441.67188 25.284374ZM450.17188 31.55L449.07812 31.55L449.07812 30.846874Q448.92188 30.95625 448.67188 31.14375Q448.4375 31.315624 448.20312 31.409374Q447.92188 31.55 447.5625 31.64375Q447.20312 31.7375 446.71875 31.7375Q445.84375 31.7375 445.21875 31.159374Q444.60938 30.565624 444.60938 29.64375Q444.60938 28.909374 444.92188 28.45625Q445.25 27.9875 445.84375 27.721874Q446.4375 27.45625 447.26562 27.3625Q448.10938 27.26875 449.07812 27.221874L449.07812 27.05Q449.07812 26.675 448.9375 26.440624Q448.8125 26.190624 448.5625 26.05Q448.32812 25.909374 448.0 25.8625Q447.67188 25.815624 447.3125 25.815624Q446.89062 25.815624 446.34375 25.940624Q445.8125 26.05 445.25 26.26875L445.1875 26.26875L445.1875 25.14375Q445.51562 25.05 446.125 24.95625Q446.73438 24.846874 447.32812 24.846874Q448.01562 24.846874 448.53125 24.971874Q449.04688 25.08125 449.42188 25.346874Q449.78125 25.6125 449.96875 26.05Q450.17188 26.471874 450.17188 27.1125L450.17188 31.55ZM449.07812 29.940624L449.07812 28.1125Q448.57812 28.14375 447.89062 28.20625Q447.20312 28.26875 446.8125 28.378124Q446.32812 28.503124 446.03125 28.8Q445.75 29.08125 445.75 29.58125Q445.75 30.14375 446.07812 30.425Q446.42188 30.70625 447.125 30.70625Q447.70312 30.70625 448.1875 30.4875Q448.67188 30.253124 449.07812 29.940624ZM458.5625 31.55L457.45312 31.55L457.45312 27.815624Q457.45312 27.378124 457.39062 26.9875Q457.34375 26.58125 457.20312 26.3625Q457.0625 26.1125 456.78125 26.003124Q456.51562 25.878124 456.07812 25.878124Q455.625 25.878124 455.125 26.096874Q454.64062 26.315624 454.1875 26.659374L454.1875 31.55L453.07812 31.55L453.07812 25.003124L454.1875 25.003124L454.1875 25.7375Q454.70312 25.3 455.25 25.065624Q455.79688 24.815624 456.39062 24.815624Q457.4375 24.815624 458.0 25.45625Q458.5625 26.096874 458.5625 27.3L458.5625 31.55ZM466.39062 31.55L465.29688 31.55L465.29688 30.8625Q464.8125 31.26875 464.29688 31.503124Q463.78125 31.7375 463.1875 31.7375Q462.01562 31.7375 461.32812 30.83125Q460.64062 29.925 460.64062 28.33125Q460.64062 27.4875 460.875 26.846874Q461.10938 26.190624 461.51562 25.7375Q461.90625 25.284374 462.4375 25.05Q462.96875 24.815624 463.54688 24.815624Q464.0625 24.815624 464.45312 24.925Q464.85938 25.034374 465.29688 25.26875L465.29688 22.425L466.39062 22.425L466.39062 31.55ZM465.29688 29.940624L465.29688 26.175Q464.84375 25.9875 464.48438 25.909374Q464.14062 25.83125 463.73438 25.83125Q462.79688 25.83125 462.28125 26.471874Q461.76562 27.1125 461.76562 28.3Q461.76562 29.471874 462.15625 30.08125Q462.5625 30.675 463.45312 30.675Q463.92188 30.675 464.39062 30.471874Q464.875 30.26875 465.29688 29.940624ZM474.65625 28.284374Q474.65625 29.878124 473.82812 30.815624Q473.01562 31.7375 471.64062 31.7375Q470.25 31.7375 469.4375 30.815624Q468.625 29.878124 468.625 28.284374Q468.625 26.675 469.4375 25.753124Q470.25 24.815624 471.64062 24.815624Q473.01562 24.815624 473.82812 25.753124Q474.65625 26.675 474.65625 28.284374ZM473.53125 28.284374Q473.53125 27.003124 473.03125 26.39375Q472.53125 25.76875 471.64062 25.76875Q470.75 25.76875 470.25 26.39375Q469.76562 27.003124 469.76562 28.284374Q469.76562 29.503124 470.25 30.14375Q470.75 30.784374 471.64062 30.784374Q472.53125 30.784374 473.03125 30.159374Q473.53125 29.51875 473.53125 28.284374ZM486.64062 31.55L485.53125 31.55L485.53125 27.815624Q485.53125 27.39375 485.48438 27.003124Q485.45312 26.6125 485.32812 26.378124Q485.20312 26.128124 484.95312 26.003124Q484.70312 25.878124 484.21875 25.878124Q483.76562 25.878124 483.29688 26.1125Q482.82812 26.33125 482.375 26.690624Q482.39062 26.83125 482.39062 27.01875Q482.40625 27.190624 482.40625 27.3625L482.40625 31.55L481.3125 31.55L481.3125 27.815624Q481.3125 27.39375 481.26562 27.003124Q481.23438 26.6125 481.10938 26.378124Q480.96875 26.128124 480.71875 26.003124Q480.46875 25.878124 480.0 25.878124Q479.54688 25.878124 479.09375 26.096874Q478.64062 26.315624 478.1875 26.659374L478.1875 31.55L477.07812 31.55L477.07812 25.003124L478.1875 25.003124L478.1875 25.7375Q478.70312 25.3 479.21875 25.065624Q479.73438 24.815624 480.3125 24.815624Q480.96875 24.815624 481.4375 25.096874Q481.90625 25.378124 482.14062 25.878124Q482.79688 25.315624 483.34375 25.065624Q483.90625 24.815624 484.53125 24.815624Q485.60938 24.815624 486.125 25.471874Q486.64062 26.128124 486.64062 27.3L486.64062 31.55Z" fill-rule="nonzero"/></svg>